<svg height="138" viewBox="0 0 143 138" width="143" xmlns="http://www.w3.org/2000/svg"><g fill="#f4f3ee"><path d="m55.901 7.943.55.152c.141.053.278.117.439.199.192.098.232.119.848.46.962.533 1.632.881 2.456 1.255 2.344 1.065 4.645 1.688 6.929 1.719 3.644.05 6.394.05 9.892.02-.047.001 1.272-.011 1.599-.014.545-.004.957-.006 1.322-.006 1.722.048 3.52.488 4.662 1.903.367.454.505 1.052.758 1.578.048-1.103.951-1.701 1.948-1.806h45.663c1.127 0 2.031.929 2 2.055-.438 14.591-4.355 26.829-13.751 38.062 4.186.762 7.339 3.279 9.352 6.933 1.181 2.481 1.496 4.808 1.496 7.982 0 7.426-6.116 14.244-15.286 14.244-4.239 0-6.608-.88-10.044-3.03-.52-.325-.735-.456-.992-.602-1.064-.603-1.903-.834-3.403-.834-1.98.129-.987-.049-2.972.565l.906 1.746c2.031 4.253 1.935 8.875.237 13.424-1.29 2.927-.613 1.678-1.909 3.811 1.588-.537.826-.262 2.29-.82.018-.007.018-.007.035-.014.799-.311 1.174-.454 1.652-.625 1.989-.713 4.374.116 5.438 1.947 1.931 3.326 2.849 8.278 2.941 14.563.004.29.134.57.358.77.07.062.158.136.29.245-.063-.052.307.25.412.338.398.33.719.618 1.04.944.364.369.694.757.995 1.178 1.48 2.073 1.481 4.17.237 5.787-.684.89-1.516 1.41-2.238 1.699-1.108.301-1.59.108-2.347-.702-.148 1.864.084.987-.668 2.637-.514.763-.299.506-.574.826 1.167 1.27.564 2.765-.915 3.351l-.013.003c-.003.001-.003.001-.006.001-.005.002-.005.002-.009.003-.009.002-.009.002-.018.004-.019.004-.019.004-.043.009-.055.012-.055.012-.128.026-.122.023-.258.044-.406.063-.411.052-.853.077-1.319.061-1.39-.048-2.717-.435-3.853-1.302-1.259-1.001-2.112-2.417-2.212-4.06l-.997.473c-.771.234-.466.178-.897.246l-.285.902c-.463 1.469-2.345 1.884-3.384.746-2.708-2.966-3.226-6.077-1.554-8.585.897-1.156.316-.5 1.871-1.847-.261-.147-.061-.026-.533-.456l-.054-.072h-.486c-1.159 0-2.076-.983-1.995-2.139.142-1.338.027-.664.356-2.02-2.384.678-1.281.442-3.291.78-5.266.656-9.225-1.682-10.527-7.326-1.146-4.966-.207-9.648 2.153-13.865 1.716-2.724.803-1.428 2.729-3.895-2.557-2.428-5.662-3.455-9.121-3.62-4.563.002-9.156.06-13.687-.585-1.253-.254-2.505-.508-3.757-.761-.006-.002-.011-.004-.017-.006l-2.204 3.756c-.404.688-1.178 1.07-1.97.973-6.928-.856-13.378.867-19.441 5.245-1.065.77-1.774 2.025-2.012 3.544-.266 1.695-1.176 2.989-2.451 3.887l-.121.071.015.448c-.076 1.099-.846 2.116-2.204 2.116-.022 0-.022 0-.093.001-.394.007-.691-.002-1.073-.051-.57-.074-1.126-.227-1.664-.486-1.409-.679-2.434-1.966-2.905-3.818-.186-.952-.163-.539-.155-1.231-.757.319-.334.179-1.28.381-1.079.089-.609.11-1.411.018-.88 1.091-2.204.984-3.249.234-.418-.364-.728-.849-.981-1.427-.448-1.028-.68-2.308-.568-3.462.231-1.855 1.007-3.8 2.776-4.693l-.507-.595-.03-.049-.675-.024c-1.081-.243-1.733-1.124-1.842-2.163-.201-1.911.978-4.054 2.756-5.033 2.331-1.164 2.724-.962 5.051-.365-.15-.771.232-1.346.767-1.846 2.271-1.647 4.471-1.982 6.338-.985 1.078.601 1.917 1.527 2.46 2.644 3.88-1.333 6.854-4.043 9.575-6.985l-.439-.067c-2.423-.791-4.746-1.847-7.011-3.006-.344 1.126-1.314 1.809-2.263 2.401-1.148.607-2.293.814-3.174.835-1.163-.036-2.285-1.039-2.013-2.296-.679.796-1.658 1.231-2.596 1.636-1.039.322-.61.245-1.265.335-.341 1.599-1.933 1.991-3.215 1.22-2.132-1.746-4.392-4.81-2.67-7.639-.955-.068-.468.012-1.458-.26-1.009-.421-.586-.183-1.301-.654l-.189.1c-1.083.569-2.418.041-2.82-1.115-1.088-3.134-.417-5.954 1.627-7.613 1.172-.842 2.842-1.626 4.316-1.105l-.183-.78-.593-.345c-1.109-.644-1.333-2.15-.461-3.09 1.388-1.494 2.496-2.12 4.569-2.678.2-.054.407-.076.613-.066 3.084.144 4.572 1.937 6.091 5.588.412 1.118 1.344 2.017 2.514 2.426 1.821.636 3.767.972 5.697 1.073.678.035 1.302.038 1.856.018.189-.006.355-.015.495-.025l.07-.006c.061-.005.039-.003.066-.005h-.001.001.001.001-.001-.001.002l.001-.001-.001.001c.732-.085 1.321.294 1.806.793l.278.369c-1.221-2.174-1.824-4.634-2.118-7.092-.494.99-1.648.955-2.541.594-.217-.088-.355-.306-.533-.459l-.001-.001s0 0 0-.001c-.001 0-.001 0-.001-.001-.002-.002-.002-.002-.005-.005-.006-.008-.006-.008-.017-.021-.026-.032-.026-.032-.068-.081-.103-.124-.103-.124-.26-.31-.281-.336-.596-.709-.937-1.112-.973-1.149-1.959-2.298-2.895-3.369-.113-.129-.224-.256-.334-.381-1.755-1.997-3.095-3.435-3.748-4.002-.94-.789-1.822-.262-2.604.426.194.215.073.09.377.362.068.056.133.105.19.146.029.021.029.021.044.031l.001.001-.003-.002-.001-.001-.003-.001c1.323 1.033 1.104 2.693-.312 3.527-.194.115-.441.098-.662.147-5.523.317-10.328-2.826-12.155-7.322-.228-.998-.198-.42.142-1.731-.611-.338-.762-1.019-.838-1.643.001-.076.001-.076.003-.151.02-1.05.055-1.502.215-2.13.407-1.595 1.184-2.627 5.013-7.004 4.378-5.002 6.699-7.524 11.147-12.15 3.728-4.043 7.722-5.639 13.841-5.983l.001.025.149-.028 1.346.027c4.027.235 7.889 1.955 10.237 5.322.009-1.172.939-1.767 2.005-1.869l1.607.085v-2.721c0-.98.71-1.816 1.678-1.974zm43.492 100.202-.465.235-.862.526.647.261c.395.185.787.387 1.29.661.26.142.521.286.782.428-.055-.481-.002-.103-.329-1.099-.475-.887-.129-.541-1.063-1.012zm14.979-47.828-1.323.97-.262.123c-1.627 1.169-3.22 2.382-4.848 3.549-.405.28-.768.509-1.442.912-.056.034-1.951 1.161-2.869 1.711-.768.46-1.747.355-2.399-.259-2.745-2.529-8.321-5.966-11.637-2.331-.333.365-.521.839-.781 1.258 1.587 1.341 3.103 2.773 4.503 4.309 2.721-1.74 5.856-2.258 9.025-2.375 4.059 0 6.354.861 9.712 2.961 1.994 1.248 2.695 1.505 4.727 1.505 2.066 0 3.417-.674 4.299-1.829.617-.809.958-1.857.958-2.386 0-.334.008-.59.029-1.165.009-.24.013-.348.017-.479.095-3.163-.775-4.249-6.335-5.356-.596-.144-1.183-.499-1.374-1.118zm-43.047-18.703c-2.418.387-1.391.124-3.113.655l-.321.122c3.772-.904 7.153-.321 9.694 2.726.258.341.478.677.731 1.098.062.102.249.418.252.423.078.131.132.219.177.288l.237.537c.424-.542.11-.226 1.138-.704-.94-.164-.52.034-1.253-.609-1.121-1.427-2.705-2.861-4.751-3.986-.532-.292-1.142-.467-1.829-.531zm15.523-17.987v.168l.134.074c.936.528 1.873 1.128 2.756 1.795 2.618 1.978 4.299 4.139 4.466 6.639.002 1.31-1.031 2.33-2.347 2.014.16.954-.295 1.669-.889 2.354-1.149.989-2.361 1.985-3.871 2.395.45 1.121.327 2.08.14 3.204-.57 2.236-2.497 3.775-5.666 4.25.119-.018.058.01-.07.09l-.304.119c1.758.242 1.6.292 3.998.03.483-.053.945-.224 1.418-.335 4.77-1.437 8.237-5.751 8.543-10.656.346-5.538-3.122-10.495-8.295-12.134zm-24.916 10.15c-.317 2.372.194 4.746.896 6.997.809 1.976.379 1.078 1.253 2.712l2.341-.764c-.656-.072-1.289-.278-1.924-.45l-.253.229c-1.125-1.246-1.766-2.847-1.766-4.549.083-1.355-.017-.565.428-2.349-.291-.118-.055-.008-.507-.596zm-18.454-11.409c-.059 2.628-1.334 4.86-3.361 6.451 2.317-.195 3.587-2.19 3.799-4.296-.102-1.494.05-.777-.438-2.155z"/><path d="m58.73 84.088.001.001c.046.003.141.01.288.02.247.017.54.036.879.056.97.056 2.102.109 3.381.154 3.662.128 7.768.162 12.22.062 1.696-.038 2.666 1.92 1.608 3.246-.033.042-.109.141-.221.292-.194.263-.413.571-.649.923-.683 1.012-1.366 2.152-2.004 3.391-1.633 3.173-2.671 6.414-2.843 9.521-.169 3.079-.02 5.234.385 7.569.035.202.286 1.561.346 1.935.12.748.175 1.351.162 1.965-.013.578-.088 1.141-.235 1.714-1.916 5.535-9.142 6.145-14.076 6.701l.001.005v.001-.001l-.001-.005-.008-.11c.004.08.001.043.008.11l-.042.005.043.001c.094.001.085-.019.035.055l-.029.004c.025.263.008.084.056.537.13 1.223.148 2.084-.018 3.134-.401 2.531-2.087 3.904-4.291 3.981-.815.029-1.623-.115-2.414-.367-.424-.135-.76-.273-.983-.381-.672-.427-1.321-1.082-1.094-2.02-.783.795-.302.412-1.511 1.055-1.123.386-.528.235-1.791.43-.014 1.701-1.604 2.371-3.021 1.768-.461-.278-1.065-.749-1.669-1.43-.862-.973-1.463-2.115-1.651-3.432-.26-2.012.228-2.781 1.22-4.4-.998-.268-.383-.055-1.769-.826 0-.001 0-.001-.001-.001-.032-.021-.032-.021-.063-.041.024.016.013.016-.017.031l-.79.419c-1.219.647-2.711-.106-2.915-1.471-.6-4.016 1.179-6.773 4.416-7.46l.857-.122-.016-.078-.31-.069c-1.574-.347-2.111-2.319-.931-3.417 2.38-2.214 4.714-2.978 6.909-2.201 1.637.579 2.8 1.8 4.012 3.721.252.399 1.032 1.723 1.178 1.952.201.3.119.192.23.335.584.12 1.229.119 1.828.138 1.196.015 2.496-.077 3.632-.271 1.201-.204 2.139-.509 2.646-.842l.101-.073c-.837-1.55-1.791-3.035-2.675-4.559-3.936-7.058-4.672-13.683-.255-20.724.396-.63 1.109-.989 1.851-.931z"/></g></svg>