<svg height="127" viewBox="0 0 138 127" width="138" xmlns="http://www.w3.org/2000/svg"><path d="m121.888 49.393-4.066 4.139c9.127 1.816 7.899 5.564 7.899 8.961 0 1.313-1.231 6.215-7.257 6.215-2.894 0-4.108-.758-5.788-1.809-1.893-1.184-4.25-2.657-8.651-2.657-4.257 0-7.328 1.383-9.358 2.98-2.016-2.318-4.243-4.403-6.528-6.306 1.888-7.445 10.198-6.587 16.146-.991 20.16-11.345 29.948-28.349 30.369-50.464h-45.664c.157 2.15.199 4.255.161 6.325 5.899 1.869 10.099 7.558 9.687 14.165-.359 5.773-4.424 10.778-9.963 12.446-2.323.7-4.557.727-6.634.318-2.007 3.623-4.397 6.912-7.121 9.806-9.657-4.802-18.774-6.788-22.304-6.998-4.071 15.808-10.942 26.644-21.772 30.451-.577.203-1.218-.087-1.452-.653-.662-1.6-2.405-4.26-6.139-1.552l1.34.881s-2.138 2.864 1.674 3.92c1.21.335.838 1.507-.725 1.116-1.563-.39-4.258-5.805-8.318-3.572-1.116.614-1.842 2.009-1.73 3.07.111 1.061 1.563-.167 1.563-.167s.428 3.535 5.117 2.754c1.34-.224 2.251.651.744.986s-6.687-.381-7.145 4.354c-.168 1.73.837 3.796 1.284 3.182.446-.614.614-.893.614-.893s3.478 1.403 5.75-2.791c.725-1.34 2.722-1.977 2.623-.726-.167 2.121-3.461 2.958-2.679 6.029.781 3.07 3.237 2.847 3.796 2.847.558 0-.168-1.619-.168-1.619s2.554-.665 2.954-3.213c.302-1.931 1.233-3.711 2.817-4.855 6.506-4.698 13.466-6.522 20.857-5.609l3.014-5.136c4.399 1.62 11.172 1.808 18.358 1.744 4.578-.04 8.926 2.001 11.816 5.55l.07.085c-.034.03-8.021 7.157-5.681 17.295 2.345 10.16 13.845 4.689 18.086 1.787 4.243-2.903 6.253 5.173 4.355 6.029-1.707.769-8.374-6.662-8.932 1.339h1.563s.544 1.958 3.461 1.228c2.233-.558 2.042 1.837.335 1.898-3.126.112-7.815 3.35-3.126 8.486l.67-2.122s3.237.112 4.242-2.791 2.599-1.898 2.599-1.898-3.371 5.689 0 8.262c1.755 1.34 4.1.781 4.1.781s-.782-.669-.893-1.897c0 0 2.572-2.022 1.383-4.731-.283-.644-.265-1.383.01-2.032l.304-.718s.871 1.675 2.88 1.787l.559 1.563s3.349-1.34 1.116-4.466c-.828-1.159-1.827-1.83-2.438-2.373-.64-.57-1.017-1.38-1.029-2.237-.081-5.522-.837-10.428-2.671-13.586-.578-.995-1.951-1.457-3.034-1.069-2.775.992-5.082 2.257-9.25 2.406 2.458-2.233 8.411-10.941 4.466-19.203-.563-1.179-1.206-2.295-1.887-3.378.964-.815 2.744-1.795 5.758-1.795 2.671 0 3.839.73 5.455 1.74 1.942 1.215 4.36 2.726 8.984 2.726 9.164 0 13.287-7.16 13.287-12.244 0-3.312-.187-11.314-9.863-13.1"/><path d="m136.997 7.161-.044 2.344c-.166 12.072-3.47 23.771-10.29 33.781-.988 1.451-2.212 2.726-3.319 4.088 4.13.8 7.203 3.418 9.181 7.008 1.205 2.531 1.525 4.895 1.525 8.111 0 7.585-6.243 14.544-15.586 14.544-4.305 0-6.723-.899-10.203-3.076-.516-.322-.728-.452-.981-.595-1.02-.578-1.808-.795-3.255-.795-1.796.115-.951-.047-2.543.441l.748 1.441c2.069 4.333 1.972 9.038.247 13.658-1.197 2.716-.621 1.701-1.508 3.159.804-.272.302-.096 1.499-.552l.035-.014c.802-.312 1.179-.456 1.66-.628 2.124-.761 4.661.12 5.798 2.079 1.963 3.38 2.889 8.377 2.982 14.709.003.205.096.406.257.55.067.059.152.13.282.237-.065-.053.307.251.413.339.405.336.733.63 1.062.965.374.38.715.779 1.025 1.214 1.911 2.675 1.423 5.284-.556 6.966-.571.486-1.13.794-1.577.972l-2.216.887-.109-.305c-.624 1.428-.282.828-.95 1.844l3.106 2.656-4.395 1.048c-.13.031-.314.067-.546.099-1.189.165-2.479.107-3.762-.356-.615-.221-1.193-.53-1.721-.933-1.385-.983-1.738-2.272-2.29-3.818-1.071.432-.598.296-1.396.482l-.236.75-1.202 3.805-2.69-2.947c-2.795-3.062-3.337-6.322-1.583-8.954.856-1.104.33-.522 1.654-1.671l-.261-.238h-2.811l.172-2.46c.129-1.209.028-.689.244-1.57-1.922.546-.973.335-2.843.649-5.409.674-9.517-1.752-10.857-7.557-1.164-5.044-.21-9.8 2.185-14.078 1.682-2.671.813-1.447 2.57-3.698-2.427-2.29-5.432-3.215-8.698-3.371-4.585.007-9.197.053-13.75-.59-1.2-.17-2.376-.483-3.564-.724l-2.095 3.57-.765 1.304-1.5-.185c-6.853-.847-13.227.856-19.229 5.191-.997.72-1.666 1.903-1.891 3.347-.259 1.649-1.106 2.951-2.309 3.888l-.256.179.01.312c-.085 1.24-.961 2.396-2.504 2.396-.015 0-.015 0-.087.001-.407.008-.717-.002-1.116-.053-.601-.078-1.187-.24-1.756-.514-1.49-.718-2.573-2.077-3.065-4.014-.173-.881-.172-.568-.168-.922-2.198.38-1.431.471-2.29.353-.976 1.141-2.459.901-3.544.123-.457-.397-.79-.917-1.058-1.532-.468-1.073-.71-2.405-.593-3.611.256-1.722.892-3.89 2.603-4.758l-.235-.276c-1.582.169-2.351-1.073-2.645-2.431-.214-2.033 1.028-4.291 2.909-5.326 1.158-.599 2.502-1.098 3.819-.764l1.968-1.428c2.358-1.71 4.678-2.063 6.656-1.006 1.074.693 1.838 1.236 2.465 2.526 11.517-4.657 16.33-17.419 19.365-28.478l.473-1.835 1.891.113c7.498.74 14.795 3.297 21.584 6.481 2.288-2.41 4.007-5.27 5.692-8.108l.813-1.466 1.644.324c1.843.363 3.684.292 5.526-.263 4.651-1.401 8.033-5.608 8.331-10.387.337-5.399-3.043-10.232-8.086-11.829l-1.637-.519.032-1.716c.039-2.105-.01-4.127-.155-6.116l-.181-2.467zm-2.344 2.3h-45.663c.157 2.15.199 4.255.161 6.325 5.899 1.869 10.099 7.558 9.687 14.165-.359 5.773-4.424 10.778-9.963 12.446-2.323.7-4.557.727-6.634.318-2.007 3.623-4.397 6.912-7.121 9.806-9.657-4.802-18.774-6.788-22.304-6.998-4.071 15.808-10.942 26.644-21.772 30.451-.577.203-1.218-.087-1.452-.653-.662-1.6-2.405-4.26-6.139-1.552l1.34.881s-2.138 2.864 1.674 3.92c1.21.335.838 1.507-.725 1.116-1.563-.39-4.258-5.805-8.318-3.572-1.116.614-1.842 2.009-1.73 3.07.111 1.061 1.563-.167 1.563-.167s.428 3.535 5.117 2.754c1.34-.224 2.251.651.744.986s-6.687-.381-7.145 4.354c-.168 1.73.837 3.796 1.284 3.182.446-.614.614-.893.614-.893s3.478 1.403 5.75-2.791c.725-1.34 2.722-1.977 2.623-.726-.167 2.121-3.461 2.958-2.679 6.029.781 3.07 3.237 2.847 3.796 2.847.558 0-.168-1.619-.168-1.619s2.554-.665 2.954-3.213c.302-1.931 1.233-3.711 2.817-4.855 6.506-4.698 13.466-6.522 20.857-5.609l3.014-5.136c4.399 1.62 11.172 1.808 18.358 1.744 4.578-.04 8.926 2.001 11.816 5.55l.07.085c-.034.03-8.021 7.157-5.681 17.295 2.345 10.16 13.845 4.689 18.086 1.787 4.243-2.903 6.253 5.173 4.355 6.029-1.707.769-8.374-6.662-8.932 1.339h1.563s.544 1.958 3.461 1.228c2.233-.558 2.042 1.837.335 1.898-3.126.112-7.815 3.35-3.126 8.486l.67-2.122s3.237.112 4.242-2.791 2.599-1.898 2.599-1.898-3.371 5.689 0 8.262c1.755 1.34 4.1.781 4.1.781s-.782-.669-.893-1.897c0 0 2.572-2.022 1.383-4.731-.283-.644-.265-1.383.01-2.032l.304-.718s.871 1.675 2.88 1.787l.559 1.563s3.349-1.34 1.116-4.466c-.828-1.159-1.827-1.83-2.438-2.373-.64-.57-1.017-1.38-1.029-2.237-.081-5.522-.837-10.428-2.671-13.586-.578-.995-1.951-1.457-3.034-1.069-2.775.992-5.082 2.257-9.25 2.406 2.458-2.233 8.411-10.941 4.466-19.203-.563-1.179-1.206-2.295-1.887-3.378.964-.815 2.744-1.795 5.758-1.795 2.671 0 3.839.73 5.455 1.74 1.942 1.215 4.36 2.726 8.984 2.726 9.164 0 13.287-7.16 13.287-12.244 0-3.312-.187-11.314-9.863-13.1l-4.066 4.139c9.127 1.816 7.899 5.564 7.899 8.961 0 1.313-1.231 6.215-7.257 6.215-2.894 0-4.108-.758-5.788-1.809-1.893-1.184-4.25-2.657-8.651-2.657-4.257 0-7.328 1.383-9.358 2.98-2.016-2.318-4.243-4.403-6.528-6.306 1.888-7.445 10.198-6.587 16.146-.991 20.16-11.345 29.948-28.349 30.369-50.464zm-33.539 93.043-.331.182-.366.224.109.043c.402.188.798.393 1.307.669.05.028.101.056.152.084.002.001.003.002.005.003l-.122-.37c-.359-.718-.099-.447-.754-.835zm14.037-47.158c-7.17 5.191-3.875 3.07-9.738 6.583l-.088.05c3.156.004 5.942 1.39 8.571 2.97 1.951 1.221 2.602 1.459 4.568 1.459 1.972 0 3.235-.63 4.061-1.711.576-.755.896-1.739.896-2.204 0-.339.008-.597.03-1.176.009-.239.013-.347.016-.477.045-1.47-.084-2.133-.538-2.7-.73-.91-2.439-1.732-5.555-2.352zm-20.125 2.513-.85.023c-1.709.327-2.409.956-3.289 2.366 1.469 1.248 2.88 2.571 4.178 3.996 2.429-1.476 5.217-2.163 8.044-2.268l-.4-.376c-1.926-1.745-4.191-3.35-6.838-3.709zm26.916-8.758-.155.192.101.1z" fill="#f9faf7"/><path d="m71.796 108.491c-.907 3.538-8.113 4.838-12.356 5.21-.853.075-1.843 1.155-1.786 2.01.054.816.296 1.994.073 3.401-.601 3.794-4.842 1.745-4.842 1.745l.698-1.506c-1.354-1.489.24-3.724.24-3.724l-1.761.729c-.65.27-1.182.784-1.432 1.442-1.052 2.765-4.304 2.402-4.304 2.402-.781.953-.694 1.979-.694 1.979s-2.063-1.247-2.374-3.432c-.598-4.199 5.794-5.89 5.794-5.89s-.106-.868-3.679-.049c-1.871.429-2.741-.166-3.636-.735-.609-.387-1.388-.386-2.026-.048l-.79.419c-.991-6.633 5.873-5.969 8.18-3.856 1.259 1.153.702-.641-1.281-1.809-2.591-1.526-1.606-3.303-1.606-3.303l-1.893-.418c6.401-5.955 8.293 3.52 10.049 4.168 1.953.721 12.253.432 11.09-3.35-.893-2.903-10.346-12.355-3.201-23.743 0 0 6.705.528 16.97.298 0 0-5.703 7.151-6.15 15.264s1.461 9.893.717 12.796"/><path d="m59.051 77.731 1.389.109c.129.01.392.029.782.053.659.041 1.431.082 2.311.12 3.937.172 8.539.233 13.645.119l4.915-.111-3.065 3.844c-.031.039-.105.135-.215.283-.191.259-.407.564-.642.912-.675 1.002-1.353 2.133-1.985 3.361-1.615 3.138-2.641 6.34-2.81 9.401-.168 3.055-.021 5.187.381 7.5.034.199.286 1.561.346 1.939.123.765.179 1.384.166 2.019-.013.601-.092 1.186-.245 1.782l-2.228-.571c.744-2.903-1.164-4.683-.717-12.796s6.15-15.264 6.15-15.264c-10.265.23-16.97-.298-16.97-.298-7.145 11.388 2.308 20.84 3.201 23.743 1.163 3.782-9.137 4.071-11.09 3.35-1.756-.648-3.648-10.123-10.049-4.168l1.893.418s-.985 1.777 1.606 3.303c1.983 1.168 2.54 2.962 1.281 1.809-2.307-2.113-9.171-2.777-8.18 3.856l.79-.419c.638-.338 1.417-.339 2.026.048.895.569 1.765 1.164 3.636.735 3.573-.819 3.679.049 3.679.049s-6.392 1.691-5.794 5.89c.311 2.185 2.374 3.432 2.374 3.432s-.087-1.026.694-1.979c0 0 3.252.363 4.304-2.402.25-.658.782-1.172 1.432-1.442l1.761-.729s-1.594 2.235-.24 3.724l-.698 1.506s4.241 2.049 4.842-1.745c.223-1.407-.019-2.585-.073-3.401-.057-.855.933-1.935 1.786-2.01 4.243-.372 11.449-1.672 12.356-5.21l2.228.571c-1.882 5.6-9.04 6.328-14.037 6.891l.032.306c.133 1.247.152 2.131-.02 3.213-.424 2.678-2.233 4.152-4.577 4.234-.853.03-1.694-.12-2.515-.381-.438-.14-.788-.284-1.022-.397l-2.038-.985.089-.192-.41.218c-1.077.371-.552.246-1.569.403l.349 4.11-3.863-2.335c-.485-.292-1.112-.781-1.738-1.487-.899-1.014-1.527-2.208-1.724-3.589-.23-1.981.08-2.661 1.053-4.258-.624-.167-.137-.02-1.356-.697l-.679.36-2.872 1.523-.48-3.215c-.492-3.439.793-6.606 4.271-7.681l-3.372-.744 3.209-2.985c2.455-2.284 4.899-3.083 7.213-2.264 1.719.608 2.921 1.87 4.166 3.844.255.404 1.034 1.727 1.177 1.951l.156.233c1.738.26 3.502.041 5.231-.166.827-.143 1.659-.337 2.405-.731-.819-1.451-1.709-2.86-2.545-4.301-3.983-7.145-4.732-13.881-.247-21.029zm.796 38.238-.205.023c.068-.007.136-.014.204-.021zm.102-.41c.004.062.002.041.004.064z" fill="#f3f4ee"/><path d="m34.358 49.021s-12.877 1.116-16.97-4.54c0 0 .372-11.165-7.369-6.178l1.191 1.116s-.819 3.647 2.456 4.913l.372 1.191s-3.349.149-4.763-1.935c-1.414-2.085-6.476-1.117-5.88 4.391l1.414-.372s1.935 3.454 6.029 1.503l2.382.597s-9.379 1.845-4.169 8.469l.521-1.414s4.02 1.34 6.848-2.754l1.935-.149s-1.712 1.414-.521 3.349l-.893 1.415s4.689.967 4.838-3.499c0 0 7.073 6.774 17.046 10.197 0 0 1.86-1.414 2.753-3.498 0 0-3.796-4.615-7.22-12.802"/><path d="m13.344 34.698c3.372.047 5.033 2.523 5.886 5.508.214.875.344 1.79.411 2.709l.037.719c1.66 1.579 3.83 2.179 6.01 2.654 2.599.496 5.394.601 7.846.48.311-.015.525-.03.626-.039l.198 2.292 2.122-.888c.289.691.587 1.369.892 2.035 1.329 2.899 2.75 5.451 4.167 7.629.491.755.945 1.407 1.348 1.954.234.317.394.522.468.611l.889 1.081-.551 1.286c-.367.855-.864 1.654-1.457 2.399-.739.929-1.476 1.612-2.019 2.024l-.977.743-1.161-.399c-3.188-1.094-6.275-2.57-9.23-4.333-4.297-2.769-2.259-1.351-6.13-4.23-.586 1.001-1.699 1.44-2.734 1.814-1.038.291-2.07.32-3.031.203-.202-.024-.364-.051-.477-.075l-3.253-.67.95-1.506c-1.004.505-.068.047-3.074.569l-1.313 3.564-2.543-3.234c-1.56-2.007-2.672-4.539-1.749-7.072.135-.371.375-.696.562-1.044-1.386-.641-.773-.263-1.864-1.092l-.188-.193-.024.006-2.585.68-.287-2.657c-.37-3.419.979-6.14 3.461-7.356 1.858-.834 2.433-.659 4.281-.282l-.024-.25-.38-.357-2.151-2.015 2.478-1.597c1.452-1.035 2.859-1.37 4.57-1.671zm.23 2.323c-1.352.039-2.435.611-3.555 1.282l1.191 1.116s-.819 3.647 2.456 4.913l.372 1.191s-3.349.149-4.763-1.935c-1.414-2.085-6.476-1.117-5.88 4.391l1.414-.372s1.935 3.454 6.029 1.503l2.382.597s-9.379 1.845-4.169 8.469l.521-1.414s4.02 1.34 6.848-2.754l1.935-.149s-1.712 1.414-.521 3.349l-.893 1.415s4.689.967 4.838-3.499c0 0 7.073 6.774 17.046 10.197 0 0 1.86-1.414 2.753-3.498 0 0-3.796-4.615-7.22-12.802 0 0-12.877 1.116-16.97-4.54-.077-2.21-.107-5.578-2.229-6.955-.465-.302-1.057-.337-1.585-.505z" fill="#f9faf7"/><path d="m123.057 24.877c-1.624-4.034-5.528-4.975-8.8-5.321-1.138-1.615-3.292-2.754-5.729-2.391-4.503.67-6.141 4.019-6.141 5.433 0 2.713 2.987 3.871 6.625 3.871 2.307 0 4.14-.677 5.174-1.864 2.179.265 3.65.756 4.2 2.123.934 2.394.594 6.078-1.181 6.831-1.564.713-3.632.589-5.821.456-3.039-.186-6.483-.393-9.484 1.665l-.114.083c-3.326 2.567-4.037 7.632-3.024 11.127 1.391 5.538 7.874 6.631 14.842 6.806 2.07-1.418 3.89-3.036 5.611-5.038-.033 0-.718.032-.751.033-6.192.057-14.062.135-14.835-3.049l-.033-.123c-.542-1.822-.137-4.637 1.208-5.738 1.572-1.037 3.756-.905 6.277-.751 2.58.156 5.506.334 8.148-.872 5.043-2.139 5.47-9.073 3.828-13.281" fill="#f9ec33"/><path d="m110.054 21.854c0 .959-.583 1.737-1.303 1.737-.719 0-1.302-.778-1.302-1.737s.583-1.737 1.302-1.737c.72 0 1.303.778 1.303 1.737" fill="#1a1919"/><path d="m80.654 24.065c-.822 0-1.489-1.022-1.489-2.283 0-1.26.667-2.282 1.489-2.282s1.489 1.022 1.489 2.282c0 1.261-.667 2.283-1.489 2.283m13.242 2.43c-.277-4.109-7.361-7.433-7.361-7.433v-1.965c0-2.636-1.341-3.171-1.341-3.171v-3.572c0-1.452-1.228-2.568-3.572-2.568-2.345 0-6.253.09-12.84 0-6.076-.083-11.046-3.87-11.499-3.796v4.912c-3.7-.475-7.132-.417-10.383 0 .714 1.83 1.549 3.657 2.791 5.471h-2.568c-12.058 19.985-13.956 26.907-3.015 43.542l6.55-15.816c7.874.006 15.342 1.957 23.707 5.321 0 0 2.154-2.869 4.396-5.337-1.179-1.792-2.796-6.687-13.775-2.087 0 0-5.396-6.531-2.679-16.406 0 0-3.126-1.96-1.284-6.872 1.842-4.913 7.998-5.379 10.215-2.233 1.843 2.612.655 4.728.655 4.728 0-2.019-1.636-3.656-3.657-3.656-2.019 0-3.656 1.637-3.656 3.656 0 1.736 1.212 3.182 2.835 3.556-1.205.713-2.021 2.012-2.021 3.512 0 .677.18 1.305.47 1.867.413-.139.847-.232 1.307-.232.371 0 .728.054 1.068.147-1.251.867-2.074 2.31-2.074 3.947 0 1.239.482 2.357 1.251 3.209 0 0 5.386-2.927 9.349-.75 2.798 1.538 4.563 3.488 5.361 4.504.313-.196.601-.338.835-.373 5.522-.828 3.908-4.912 3.908-4.912s-.462 1.095-1.861.707c-2.009-.558-4.168-1.303-4.168-2.531 0-2.791 5.136-2.084 5.136-2.084l-.606 2.183s3.509-.35 5.89-2.667c1.377-1.339-1.637-4.986-1.637-4.986s2.56.066 4.273 2.185" fill="#d9197e"/><path d="m57.625 1.701.62.171c.152.059.299.126.468.212.197.101.236.122.857.466.956.529 1.62.874 2.435 1.244 2.309 1.049 4.571 1.662 6.809 1.692 3.64.05 6.386.05 9.882.02-.052.001 1.273-.011 1.601-.014.546-.004.959-.006 1.325-.006 3.389 0 5.872 1.906 5.872 4.868v2.538l.234.283c.714.987 1.106 2.302 1.106 3.922v.579c1.875 1.135.951.533 2.772 1.807 2.68 2.026 4.409 4.248 4.584 6.858l-2.295.154-.283.229c.623 1.63.356 2.95-.747 4.22-.701.682-1.498 1.256-2.37 1.734l-1.341.618.063.233c.267 1.125.264 2.336-.222 3.545-.972 2.313-3.175 3.307-5.501 3.763-.073.038-.024.011-.147.085l-1.752 1.098-.751-.956.819 1.245-1.199 1.321c-.255.28-.517.575-.784.882-.814.937-1.643 1.945-2.441 2.954-.279.353-.535.681-.76.975-.134.174-.227.297-.274.36l-1.06 1.412-1.638-.659c-6.808-2.74-13.945-4.891-21.33-5.11l-5.944 14.351-1.661 4.011-2.385-3.627c-10.961-16.666-10.237-24.11 2.967-45.994l.651-1.079c-.634-1.245-.261-.466-1.047-2.368l-1.07-2.743 2.92-.374c2.798-.31 5.535-.523 8.375-.25v-4.336l1.93-.315zm-.342 2.289v4.912c-3.7-.475-7.132-.417-10.383 0 .714 1.83 1.549 3.657 2.791 5.471h-2.568c-12.058 19.985-13.956 26.907-3.015 43.542l6.55-15.816c7.874.006 15.342 1.957 23.707 5.321 0 0 2.154-2.869 4.396-5.337-1.179-1.792-2.796-6.687-13.775-2.087 0 0-5.396-6.531-2.679-16.406 0 0-3.126-1.96-1.284-6.872 1.842-4.913 7.998-5.379 10.215-2.233 1.843 2.612.655 4.728.655 4.728 0-2.019-1.636-3.656-3.657-3.656-2.019 0-3.656 1.637-3.656 3.656 0 1.736 1.212 3.182 2.835 3.556-1.205.713-2.021 2.012-2.021 3.512 0 .677.18 1.305.47 1.867.413-.139.847-.232 1.307-.232.371 0 .728.054 1.068.147-1.251.867-2.074 2.31-2.074 3.947 0 1.239.482 2.357 1.251 3.209 0 0 5.386-2.927 9.349-.75 2.798 1.538 4.563 3.488 5.361 4.504.313-.196.601-.338.835-.373 5.522-.828 3.908-4.912 3.908-4.912s-.462 1.095-1.861.707c-2.009-.558-4.168-1.303-4.168-2.531 0-2.791 5.136-2.084 5.136-2.084l-.606 2.183s3.509-.35 5.89-2.667c1.377-1.339-1.637-4.986-1.637-4.986s2.56.066 4.273 2.185c-.277-4.109-7.361-7.433-7.361-7.433l-.001-1.965c.001-2.636-1.34-3.171-1.34-3.171v-3.572c0-1.452-1.228-2.568-3.572-2.568-2.345 0-6.253.09-12.84 0-6.076-.083-11.046-3.87-11.499-3.796zm23.371 15.51c.822 0 1.489 1.022 1.489 2.282 0 1.261-.667 2.283-1.489 2.283s-1.489-1.022-1.489-2.283c0-1.26.667-2.282 1.489-2.282zm0 2.265-.123.017.123.018.124-.018zm-15.035 14.875c.252.503.149.327.28.546l.15-.049-.34-.377zm-1.768-7.378.133 1.614.228-.914z" fill="#f3f4ee"/><path d="m18.727 23.417c-.678 0-1.228-.761-1.228-1.701 0-.939.55-1.7 1.228-1.7s1.228.761 1.228 1.7c0 .94-.55 1.701-1.228 1.701m26.088-15.556c-1.042.298-2.084.223-3.238-1.638-1.153-1.86-4.8-4.838-10.457-2.605-3.457 1.365-5.524 4.813-6.609 7.289-.703 1.606-2.044 2.828-3.715 3.358-6.252 1.983-16.62 8.262-16.62 10.938 0 4.563 4.763 4.466 4.763 4.466v4.243c3.275 0 3.722-4.392 3.722-4.392h3.573c1.414 6.774 6.847 6.997 6.847 6.997 3.424 9.75 10.272 8.783 10.272 8.783-2.308-10.718 3.54-20.767 3.54-20.767-5.988-3.498-6.22-6.698-6.22-6.698 5.061.744 9.808-4.12 7.667-5.359-5.211-3.015-9.081.297-9.081.297s.372-3.721 4.689-5.508c3.017-1.248 3.945.149 6.997 1.861 3.051 1.712 4.912-1.563 3.87-1.265" fill="#38a0ce"/><path d="m36.391.598c3.148.467 5.281 1.951 7.141 4.413.185.297.347.504.481.632l.051.047.119-.04c2.196-.628 3.677 1.365 3.089 3.219-.234.736-.758 1.426-1.429 1.958-1.524 1.128-3.564 1.478-5.326.637.825.91.709 2.165.404 3.257-.381 1.058-1.185 2.076-2.251 2.953-1.212 1.075-2.688 1.656-4.211 2.116 2.484 2.155 1.263 1.266 3.595 2.757l1.982 1.158-1.155 1.985c-.099.17-.294.535-.554 1.073-.445.92-.892 1.969-1.31 3.126-1.784 4.936-2.46 10.074-1.415 14.927l.52 2.416-2.447.345c-.072.011-.167.021-.284.03-2.274.171-5.023-.511-7.619-2.732-2.053-1.676-3.256-4-4.377-6.336l-.051-.011c-1.105-.307-2.205-.822-3.234-1.595-1.775-1.279-2.817-3.118-3.579-5.113h-.065c-.096.351-.009.045-.36.882-.996 2.1-2.717 3.51-5.167 3.51h-2.3v-4.59l-1.04-.384c-2.272-1.042-3.723-3.097-3.723-6.035 0-2.427 2.582-4.831 7.029-7.668 3.615-2.306 7.934-4.428 11.196-5.462 1.031-.327 1.862-1.081 2.304-2.089 1.731-3.951 4.259-7.079 7.871-8.505 2.242-.95 3.688-.851 6.115-.881zm-.571 2.26c-1.632-.173-3.178.233-4.7.76-3.457 1.365-5.524 4.813-6.609 7.289-.703 1.606-2.044 2.828-3.715 3.358-6.252 1.983-16.62 8.262-16.62 10.938 0 4.563 4.763 4.466 4.763 4.466v4.243c3.275 0 3.722-4.392 3.722-4.392h3.573c1.414 6.774 6.847 6.997 6.847 6.997 3.424 9.75 10.272 8.783 10.272 8.783-2.308-10.718 3.54-20.767 3.54-20.767-5.988-3.498-6.22-6.698-6.22-6.698 5.061.744 9.808-4.12 7.667-5.359-5.211-3.015-9.081.297-9.081.297s.372-3.721 4.689-5.508c3.017-1.248 3.945.149 6.997 1.861 3.051 1.712 4.912-1.563 3.87-1.265s-2.084.223-3.238-1.638c-1.324-2.084-3.456-2.927-5.757-3.365zm-17.093 17.158c.678 0 1.228.761 1.228 1.7 0 .94-.55 1.701-1.228 1.701s-1.228-.761-1.228-1.701c0-.939.55-1.7 1.228-1.7zm0 1.101c-.462 0-.817.208-.996.455-.062.087-.076.13-.076.144s.014.058.076.145c.179.247.534.455.996.455l.605-.135.391-.32c.063-.087.076-.131.076-.145s-.013-.057-.075-.144c-.179-.247-.534-.455-.997-.455zm17.474-12.013-.297.029 1.138.342c-.332-.192-.167-.103-.496-.268z" fill="#f9faf7"/></svg>