<svg height="62.419" viewBox="0 0 583.465 62.419" width="583.465" xmlns="http://www.w3.org/2000/svg"><path d="m535.408 16.769q1.245.664 2.864 1.909 1.618 1.245 2.78 2.78 1.162 1.536 1.162 2.532v31.789l-21.414 6.557-.249.083q-2.49 0-6.64-1.702-4.15-1.701-6.349-4.067-2.2-2.365-2.449-4.855-.083-1.826-.29-7.014-.208-5.187-.042-13.363.166-8.175.083-8.258h-3.237v-2.988l10.458-3.403q3.237.83 5.437 2.905 2.199 2.075 2.78 4.15-.249 14.027.166 29.548.083 1.245 2.2 2.49 2.116 1.245 4.025 1.577l-.083-34.279-3.403.415-.498-3.32zm-65.819-6.972q-4.067 3.403-8.507 6.266-4.441 2.864-7.512 4.275v2.324l2.656.332v31.125q0 3.237 2.573 5.104 2.573 1.868 8.217 3.196l12.118-3.32.415-2.739-7.802.166v-33.2l5.229-.415v-2.905l-5.229-.415v-9.213zm-74.783 11.039q1.245.166 2.656 1.535 1.411 1.37 2.283 3.237.871 1.868 1.12 3.445.83 4.482 0 8.715-.249 1.328-1.079 2.282-.83.955-2.116 1.245-1.287.291-2.241.374-.955.083-1.619.166-.249-4.482.042-10.375.29-5.893.954-10.624zm11.62-4.233q-10.292.747-15.811 1.867-5.52 1.121-9.587 2.449-1.162 4.15-1.743 10.79-.581 6.64-.083 13.363.498 5.976 2.2 9.337 1.701 3.362 4.399 4.98 2.697 1.619 8.258 3.03 1.494-.249 5.022-.664 3.527-.415 6.806-1.121 3.278-.705 7.594-2.365.996-5.81 1.245-11.288l-2.407-.249q0-.332-4.98 3.652-4.98 3.984-7.594 5.436-2.615 1.453-3.196.706-1.411-1.743-1.909-4.316-.498-2.573-.747-6.723 2.822.415 7.387-.332 4.565-.747 6.972-2.075 4.316-2.324 5.81-5.063 1.494-2.739 1.494-6.142 0-2.573-.954-5.686-.955-3.112-2.947-5.685-1.992-2.573-5.229-3.901zm-62.582-16.351q-4.731 0-7.47.581-2.822.83-2.822 5.644-.166 5.478-.207 11.578-.042 6.101 0 13.073.041 6.972.124 16.143.083 9.172.083 9.338 0 1.66 2.449 3.278 2.448 1.619 5.519 2.532l11.786-2.822-.083-2.407-4.233-.415v-3.652l.083-48.804 4.565-1.66-.83-1.992q-4.233-.415-8.964-.415zm-65.321 16.517q-5.395.083-11.703 1.286-6.308 1.204-10.873 2.864-2.075 2.988-2.905 11.08-.83 8.093.581 17.389.913 5.976 5.354 9.503 4.44 3.528 11.246 3.528 4.233 0 8.549-1.287 4.316-1.286 6.889-2.863-.83-2.573-2.158-4.15-.581.166-3.61 1.411-3.03 1.245-5.105 1.328-2.075.083-3.154-.581-1.079-.664-1.494-1.079-.415-.415-.581-.581-1.328-1.494-2.116-6.599-.789-5.104-.54-13.653.249-8.549 1.411-12.699.664.415 2.49 3.818 1.826 3.403 3.569 7.221 7.138-1.162 11.454-3.486-.498-.913-2.033-4.026-1.536-3.112-2.822-5.312-1.287-2.199-2.449-3.112zm-84.992 0c-3.925.159-7.847.496-11.703 1.286q-6.308 1.204-10.873 2.864-2.075 2.988-2.905 11.08-.83 8.093.581 17.389.913 5.976 5.354 9.503 4.44 3.528 11.246 3.528 4.233 0 8.549-1.287 4.316-1.286 6.889-2.863-.83-2.573-2.158-4.15-.581.166-3.61 1.411-3.03 1.245-5.105 1.328-2.075.083-3.154-.581-1.079-.664-1.494-1.079-.415-.415-.581-.581-1.328-1.494-2.116-6.599-.789-5.104-.54-13.653.249-8.549 1.411-12.699.664.415 2.49 3.818 1.826 3.403 3.569 7.221 7.138-1.162 11.454-3.486-.498-.913-2.033-4.026-1.536-3.112-2.822-5.312c-.985-1.579-.388-.705-1.86-2.575zm-116.698 4.897.415 2.49 2.988.083v32.951q0 .913 2.615 2.573 2.614 1.66 5.685 2.656l11.122-2.988-.083-2.075-4.15-.332.332-32.785q1.494-.083 2.905 0 1.411.083 2.449 1.037 1.037.955 1.037 3.362l.249 28.303q0 .913 2.158 2.531 2.158 1.619 5.81 2.947l10.873-3.237v-1.826l-3.652-.332.083-32.038-.083-.415q2.49-.166 3.86.041 1.369.208 2.075 1.204.705.996.705 2.573l.332 28.552q0 .415.208.996.207.581.788 1.203.581.623 1.577 1.245.996.623 2.324 1.245 1.328.623 1.66.789l11.371-2.988.166-2.075-3.32-.166.249-29.88q0-2.905-1.909-5.644-1.909-2.739-4.689-3.86-2.781-1.12-5.769-.871-2.988.249-5.851 1.743-2.864 1.494-5.022 3.403-1.577-2.241-4.191-3.777-2.615-1.535-5.935-1.494-3.32.042-6.972 2.117-1.162.664-3.403 2.573v-.166q-1.079-1.328-3.361-2.656-2.283-1.328-5.022-1.909zm-24.568-.747q3.403.166 4.233.498.83.332 1.204.788.373.457.539 1.079.166.623.249 1.204.332 15.438 0 33.781-5.81.498-6.059-4.067-.581-14.774-.166-33.283zm7.968-4.233q-5.229.332-11.744 1.784-6.516 1.453-11.662 3.362-.498 15.355 0 28.137 0 .415.125 3.112.124 2.698 1.12 3.943.996 1.245 2.407 2.075 1.992 1.162 5.271 2.075 3.278.913 6.017 1.245 4.897-.332 10.998-1.536 6.1-1.203 10.997-2.614.747-15.355.415-30.793-.083-3.32-1.701-4.939-1.619-1.618-4.524-3.195-2.573-1.411-7.719-2.656zm83 3.652.166 2.49 3.403.249-.249 33.532q0 1.162 1.619 2.324 1.618 1.162 3.735 2.241 2.116 1.079 2.448 1.245l11.62-2.988-.166-2.158-3.652-.332-.166-34.445q-.83-1.162-2.863-2.822-2.034-1.66-4.856-3.071zm161.767.581q3.403.166 4.233.498.83.332 1.204.788.373.457.539 1.079.166.623.249 1.204.332 15.438 0 33.781-5.81.498-6.059-4.067-.581-14.774-.166-33.283zm7.968-4.233q-5.229.332-11.744 1.784-6.516 1.453-11.662 3.362-.498 15.355 0 28.137 0 .415.125 3.112.124 2.698 1.12 3.943.996 1.245 2.407 2.075 1.992 1.162 5.271 2.075 3.278.913 6.017 1.245 4.897-.332 10.998-1.536 6.1-1.203 10.997-2.614.747-15.355.415-30.793-.083-3.32-1.701-4.939-1.619-1.618-4.524-3.195-2.573-1.411-7.719-2.656zm54.365-16.434q-4.731 0-7.47.581-2.822.83-2.822 5.644-.166 5.478-.207 11.578-.042 6.101 0 13.073.041 6.972.124 16.143.083 9.172.083 9.338 0 1.66 2.449 3.278 2.448 1.619 5.519 2.532l11.786-2.822-.083-2.407-4.233-.415v-3.652l.083-48.804 4.565-1.66-.83-1.992q-4.233-.415-8.964-.415zm77.605 16.517q-5.395.083-11.703 1.286-6.308 1.204-10.873 2.864-2.075 2.988-2.905 11.08-.83 8.093.581 17.389.913 5.976 5.354 9.503 4.44 3.528 11.246 3.528 4.233 0 8.549-1.287 4.316-1.286 6.889-2.863-.83-2.573-2.158-4.15-.581.166-3.61 1.411-3.03 1.245-5.105 1.328-2.075.083-3.154-.581-1.079-.664-1.494-1.079-.415-.415-.581-.581-1.328-1.494-2.116-6.599-.789-5.104-.54-13.653.249-8.549 1.411-12.699.664.415 2.49 3.818 1.826 3.403 3.569 7.221 7.138-1.162 11.454-3.486-.498-.913-2.033-4.026-1.536-3.112-2.822-5.312-1.287-2.199-2.449-3.112zm34.528 3.569.166 2.49 3.403.249-.249 33.532q0 1.162 1.619 2.324 1.618 1.162 3.735 2.241 2.116 1.079 2.448 1.245l11.62-2.988-.166-2.158-3.652-.332-.166-34.445q-.83-1.162-2.863-2.822-2.034-1.66-4.856-3.071zm83.249.498q1.245.166 2.656 1.535 1.411 1.37 2.283 3.237.871 1.868 1.12 3.445.83 4.482 0 8.715-.249 1.328-1.079 2.282-.83.955-2.116 1.245-1.287.291-2.241.374-.955.083-1.619.166-.249-4.482.042-10.375.29-5.893.954-10.624zm11.62-4.233q-10.292.747-15.811 1.867-5.52 1.121-9.587 2.449-1.162 4.15-1.743 10.79-.581 6.64-.083 13.363.498 5.976 2.2 9.337 1.701 3.362 4.399 4.98 2.697 1.619 8.258 3.03 1.494-.249 5.022-.664 3.527-.415 6.806-1.121 3.278-.705 7.594-2.365.996-5.81 1.245-11.288l-2.407-.249q0-.332-4.98 3.652-4.98 3.984-7.594 5.436-2.615 1.453-3.196.706-1.411-1.743-1.909-4.316-.498-2.573-.747-6.723 2.822.415 7.387-.332 4.565-.747 6.972-2.075 4.316-2.324 5.81-5.063 1.494-2.739 1.494-6.142 0-2.573-.954-5.686-.955-3.112-2.947-5.685-1.992-2.573-5.229-3.901zm-548.547.166q-5.395.083-11.703 1.286-6.308 1.204-10.873 2.864-2.075 2.988-2.905 11.08-.83 8.093.581 17.389.913 5.976 5.354 9.503 4.44 3.528 11.246 3.528 4.233 0 8.549-1.287 4.316-1.286 6.889-2.863-.83-2.573-2.158-4.15-.581.166-3.61 1.411-3.03 1.245-5.105 1.328-2.075.083-3.154-.581-1.079-.664-1.494-1.079-.415-.415-.581-.581-1.328-1.494-2.116-6.599-.789-5.104-.54-13.653.249-8.549 1.411-12.699.664.415 2.49 3.818 1.826 3.403 3.569 7.221 7.138-1.162 11.454-3.486-.498-.913-2.033-4.026-1.536-3.112-2.822-5.312-1.287-2.199-2.449-3.112zm190.9.166q-2.407.498-5.021 1.743-2.615 1.245-4.856 3.735-2.241 2.49-2.863 5.893-.623 3.403.498 6.059 1.12 2.656 2.863 4.233.996.83 5.603 4.814 4.606 3.984 8.092 7.553 1.411 1.079 1.868 2.241.456 1.162.207 2.407-.249 1.245-.996 2.158-2.407-.83-6.308-4.15-3.901-3.32-7.138-6.972l-2.49.249q-1.079 6.64-1.411 11.952 1.992.664 3.86 1.162 1.867.498 3.776.913 1.909.415 10.126 1.328 5.478-1.411 8.757-3.943 3.278-2.531 4.44-5.395 1.162-2.863.747-5.519-.415-2.656-1.826-4.316-3.32-4.067-8.673-8.508-5.354-4.44-6.433-5.353-1.079-.913-1.66-1.411-1.411-1.245-2.033-2.573-.623-1.328-.042-2.449.581-1.12 1.826-1.618 2.49.996 6.682 4.689 4.191 3.694 4.814 4.192.622.498.871.664h1.328q.913-2.075 1.702-4.773.788-2.697 1.203-4.772-2.739-1.245-7.594-2.573-4.856-1.328-9.919-1.66z" fill="#545452"/><path d="m157.561 0 1.442.044q2.822.208 4.15 1.038-5.644 6.391-8.3 10.541-2.324.332-3.071-.332-.249-2.988.083-5.935.332-2.946.996-4.772c2.638-.509 1.078-.266 4.7-.584z" fill="#38a0ce"/><path d="m493.794 0 1.442.044q2.822.208 4.15 1.038-5.644 6.391-8.3 10.541-2.324.332-3.071-.332-.249-2.988.083-5.935.332-2.946.996-4.772c2.638-.509 1.078-.266 4.7-.584z" fill="#f9ec33"/></svg>