<svg height="62.419" viewBox="0 0 583.465 62.419" width="583.465" xmlns="http://www.w3.org/2000/svg"><g fill="#f3f4ee"><path d="m535.408 16.769q1.245.664 2.864 1.909 1.618 1.245 2.78 2.78 1.162 1.536 1.162 2.532v31.789l-21.414 6.557-.249.083q-2.49 0-6.64-1.702-4.15-1.701-6.349-4.067-2.2-2.365-2.449-4.855-.083-1.826-.29-7.014-.208-5.187-.042-13.363.166-8.175.083-8.258h-3.237v-2.988l10.458-3.403q3.237.83 5.437 2.905 2.199 2.075 2.78 4.15-.249 14.027.166 29.548.083 1.245 2.2 2.49 2.116 1.245 4.025 1.577l-.083-34.279-3.403.415-.498-3.32z"/><path d="m469.589 9.797 2.158.581v9.213l5.229.415v2.905l-5.229.415v33.2l7.802-.166-.415 2.739-12.118 3.32q-5.644-1.328-8.217-3.196-2.573-1.867-2.573-5.104v-31.125l-2.656-.332v-2.324q3.071-1.411 7.512-4.275 4.44-2.863 8.507-6.266z"/><path d="m406.426 16.603q3.237 1.328 5.229 3.901 1.992 2.573 2.947 5.685.954 3.113.954 5.686 0 3.403-1.494 6.142-1.494 2.739-5.81 5.063-2.407 1.328-6.972 2.075-4.565.747-7.387.332.249 4.15.747 6.723.498 2.573 1.909 4.316.581.747 3.196-.706 2.614-1.452 7.594-5.436 4.98-3.984 4.98-3.652l2.407.249q-.249 5.478-1.245 11.288-4.316 1.66-7.594 2.365-3.279.706-6.806 1.121-3.528.415-5.022.664-5.561-1.411-8.258-3.03-2.698-1.618-4.399-4.98-1.702-3.361-2.2-9.337-.498-6.723.083-13.363.581-6.64 1.743-10.79 4.067-1.328 9.587-2.449 5.519-1.12 15.811-1.867zm-11.62 4.233q-.664 4.731-.954 10.624-.291 5.893-.042 10.375.664-.083 1.619-.166.954-.083 2.241-.374 1.286-.29 2.116-1.245.83-.954 1.079-2.282.83-4.233 0-8.715-.249-1.577-1.12-3.445-.872-1.867-2.283-3.237-1.411-1.369-2.656-1.535z"/><path d="m343.844.252q4.731 0 8.964.415l.83 1.992-4.565 1.66-.083 48.804v3.652l4.233.415.083 2.407-11.786 2.822q-3.071-.913-5.519-2.532-2.449-1.618-2.449-3.278 0-.166-.083-9.338-.083-9.171-.124-16.143-.042-6.972 0-13.073.041-6.1.207-11.578 0-4.814 2.822-5.644 2.739-.581 7.47-.581z"/><path d="m278.523 16.769q1.162.913 2.449 3.112 1.286 2.2 2.822 5.312 1.535 3.113 2.033 4.026-4.316 2.324-11.454 3.486-1.743-3.818-3.569-7.221-1.826-3.403-2.49-3.818-1.162 4.15-1.411 12.699-.249 8.549.54 13.653.788 5.105 2.116 6.599.166.166.581.581.415.415 1.494 1.079 1.079.664 3.154.581 2.075-.083 5.105-1.328 3.029-1.245 3.61-1.411 1.328 1.577 2.158 4.15-2.573 1.577-6.889 2.863-4.316 1.287-8.549 1.287-6.806 0-11.246-3.528-4.441-3.527-5.354-9.503-1.411-9.296-.581-17.389.83-8.092 2.905-11.08 4.565-1.66 10.873-2.864 6.308-1.203 11.703-1.286z"/><path d="m193.531 16.769.589.537c1.472 1.87.875.996 1.86 2.575q1.286 2.2 2.822 5.312 1.535 3.113 2.033 4.026-4.316 2.324-11.454 3.486-1.743-3.818-3.569-7.221-1.826-3.403-2.49-3.818-1.162 4.15-1.411 12.699-.249 8.549.54 13.653.788 5.105 2.116 6.599.166.166.581.581.415.415 1.494 1.079 1.079.664 3.154.581 2.075-.083 5.105-1.328 3.029-1.245 3.61-1.411 1.328 1.577 2.158 4.15-2.573 1.577-6.889 2.863-4.316 1.287-8.549 1.287-6.806 0-11.246-3.528-4.441-3.527-5.354-9.503-1.411-9.296-.581-17.389.83-8.092 2.905-11.08 4.565-1.66 10.873-2.864c3.856-.79 7.778-1.127 11.703-1.286z"/><path d="m87.457 16.769q2.739.581 5.022 1.909 2.282 1.328 3.361 2.656v.166q2.241-1.909 3.403-2.573 3.652-2.075 6.972-2.117 3.32-.041 5.935 1.494 2.614 1.536 4.191 3.777 2.158-1.909 5.022-3.403 2.863-1.494 5.851-1.743 2.988-.249 5.769.871 2.78 1.121 4.689 3.86 1.909 2.739 1.909 5.644l-.249 29.88 3.32.166-.166 2.075-11.371 2.988q-.332-.166-1.66-.789-1.328-.622-2.324-1.245-.996-.622-1.577-1.245-.581-.622-.788-1.203-.208-.581-.208-.996l-.332-28.552q0-1.577-.705-2.573-.706-.996-2.075-1.204-1.37-.207-3.86-.041l.083.415-.083 32.038 3.652.332v1.826l-10.873 3.237q-3.652-1.328-5.81-2.947-2.158-1.618-2.158-2.531l-.249-28.303q0-2.407-1.037-3.362-1.038-.954-2.449-1.037-1.411-.083-2.905 0l-.332 32.785 4.15.332.083 2.075-11.122 2.988q-3.071-.996-5.685-2.656-2.615-1.66-2.615-2.573v-32.951l-2.988-.083-.415-2.49z"/><path d="m60.233 16.686q5.146 1.245 7.719 2.656 2.905 1.577 4.524 3.195 1.618 1.619 1.701 4.939.332 15.438-.415 30.793-4.897 1.411-10.997 2.614-6.101 1.204-10.998 1.536-2.739-.332-6.017-1.245-3.279-.913-5.271-2.075-1.411-.83-2.407-2.075-.996-1.245-1.12-3.943-.125-2.697-.125-3.112-.498-12.782 0-28.137 5.146-1.909 11.662-3.362 6.515-1.452 11.744-1.784zm-7.968 4.233q-.415 18.509.166 33.283.249 4.565 6.059 4.067.332-18.343 0-33.781-.083-.581-.249-1.204-.166-.622-.539-1.079-.374-.456-1.204-.788-.83-.332-4.233-.498z"/><path d="m154.272 16.603q2.822 1.411 4.856 3.071 2.033 1.66 2.863 2.822l.166 34.445 3.652.332.166 2.158-11.62 2.988q-.332-.166-2.448-1.245-2.117-1.079-3.735-2.241-1.619-1.162-1.619-2.324l.249-33.532-3.403-.249-.166-2.49z"/><path d="m312.968 16.686q5.146 1.245 7.719 2.656 2.905 1.577 4.524 3.195 1.618 1.619 1.701 4.939.332 15.438-.415 30.793-4.897 1.411-10.997 2.614-6.101 1.204-10.998 1.536-2.739-.332-6.017-1.245-3.279-.913-5.271-2.075-1.411-.83-2.407-2.075-.996-1.245-1.12-3.943-.125-2.697-.125-3.112-.498-12.782 0-28.137 5.146-1.909 11.662-3.362 6.515-1.452 11.744-1.784zm-7.968 4.233q-.415 18.509.166 33.283.249 4.565 6.059 4.067.332-18.343 0-33.781-.083-.581-.249-1.204-.166-.622-.539-1.079-.374-.456-1.204-.788-.83-.332-4.233-.498z"/><path d="m367.333.252q4.731 0 8.964.415l.83 1.992-4.565 1.66-.083 48.804v3.652l4.233.415.083 2.407-11.786 2.822q-3.071-.913-5.519-2.532-2.449-1.618-2.449-3.278 0-.166-.083-9.338-.083-9.171-.124-16.143-.042-6.972 0-13.073.041-6.1.207-11.578 0-4.814 2.822-5.644 2.739-.581 7.47-.581z"/><path d="m444.938 16.769q1.162.913 2.449 3.112 1.286 2.2 2.822 5.312 1.535 3.113 2.033 4.026-4.316 2.324-11.454 3.486-1.743-3.818-3.569-7.221-1.826-3.403-2.49-3.818-1.162 4.15-1.411 12.699-.249 8.549.54 13.653.788 5.105 2.116 6.599.166.166.581.581.415.415 1.494 1.079 1.079.664 3.154.581 2.075-.083 5.105-1.328 3.029-1.245 3.61-1.411 1.328 1.577 2.158 4.15-2.573 1.577-6.889 2.863-4.316 1.287-8.549 1.287-6.806 0-11.246-3.528-4.441-3.527-5.354-9.503-1.411-9.296-.581-17.389.83-8.092 2.905-11.08 4.565-1.66 10.873-2.864 6.308-1.203 11.703-1.286z"/><path d="m490.505 16.603q2.822 1.411 4.856 3.071 2.033 1.66 2.863 2.822l.166 34.445 3.652.332.166 2.158-11.62 2.988q-.332-.166-2.448-1.245-2.117-1.079-3.735-2.241-1.619-1.162-1.619-2.324l.249-33.532-3.403-.249-.166-2.49z"/><path d="m574.335 16.603q3.237 1.328 5.229 3.901 1.992 2.573 2.947 5.685.954 3.113.954 5.686 0 3.403-1.494 6.142-1.494 2.739-5.81 5.063-2.407 1.328-6.972 2.075-4.565.747-7.387.332.249 4.15.747 6.723.498 2.573 1.909 4.316.581.747 3.196-.706 2.614-1.452 7.594-5.436 4.98-3.984 4.98-3.652l2.407.249q-.249 5.478-1.245 11.288-4.316 1.66-7.594 2.365-3.279.706-6.806 1.121-3.528.415-5.022.664-5.561-1.411-8.258-3.03-2.698-1.618-4.399-4.98-1.702-3.361-2.2-9.337-.498-6.723.083-13.363.581-6.64 1.743-10.79 4.067-1.328 9.587-2.449 5.519-1.12 15.811-1.867zm-11.62 4.233q-.664 4.731-.954 10.624-.291 5.893-.042 10.375.664-.083 1.619-.166.954-.083 2.241-.374 1.286-.29 2.116-1.245.83-.954 1.079-2.282.83-4.233 0-8.715-.249-1.577-1.12-3.445-.872-1.867-2.283-3.237-1.411-1.369-2.656-1.535z"/><path d="m25.788 16.769q1.162.913 2.449 3.112 1.286 2.2 2.822 5.312 1.535 3.113 2.033 4.026-4.316 2.324-11.454 3.486-1.743-3.818-3.569-7.221-1.826-3.403-2.49-3.818-1.162 4.15-1.411 12.699-.249 8.549.54 13.653.788 5.105 2.116 6.599.166.166.581.581.415.415 1.494 1.079 1.079.664 3.154.581 2.075-.083 5.105-1.328 3.029-1.245 3.61-1.411 1.328 1.577 2.158 4.15-2.573 1.577-6.889 2.863-4.316 1.287-8.549 1.287-6.806 0-11.246-3.528-4.441-3.527-5.354-9.503-1.411-9.296-.581-17.389.83-8.092 2.905-11.08 4.565-1.66 10.873-2.864 6.308-1.203 11.703-1.286z"/><path d="m216.688 16.935q5.063.332 9.919 1.66 4.855 1.328 7.594 2.573-.415 2.075-1.203 4.772-.789 2.698-1.702 4.773h-1.328q-.249-.166-.871-.664-.623-.498-4.814-4.192-4.192-3.693-6.682-4.689-1.245.498-1.826 1.618-.581 1.121.042 2.449.622 1.328 2.033 2.573.581.498 1.66 1.411 1.079.913 6.433 5.353 5.353 4.441 8.673 8.508 1.411 1.66 1.826 4.316.415 2.656-.747 5.519-1.162 2.864-4.44 5.395-3.279 2.532-8.757 3.943-8.217-.913-10.126-1.328-1.909-.415-3.776-.913-1.868-.498-3.86-1.162.332-5.312 1.411-11.952l2.49-.249q3.237 3.652 7.138 6.972 3.901 3.32 6.308 4.15.747-.913.996-2.158.249-1.245-.207-2.407-.457-1.162-1.868-2.241-3.486-3.569-8.092-7.553-4.607-3.984-5.603-4.814-1.743-1.577-2.863-4.233-1.121-2.656-.498-6.059.622-3.403 2.863-5.893 2.241-2.49 4.856-3.735 2.614-1.245 5.021-1.743z"/></g><path d="m157.561 0 1.442.044q2.822.208 4.15 1.038-5.644 6.391-8.3 10.541-2.324.332-3.071-.332-.249-2.988.083-5.935.332-2.946.996-4.772c2.638-.509 1.078-.266 4.7-.584z" fill="#38a0ce"/><path d="m493.794 0 1.442.044q2.822.208 4.15 1.038-5.644 6.391-8.3 10.541-2.324.332-3.071-.332-.249-2.988.083-5.935.332-2.946.996-4.772c2.638-.509 1.078-.266 4.7-.584z" fill="#f9ec33"/></svg>