<svg height="138" viewBox="0 0 143 138" width="143" xmlns="http://www.w3.org/2000/svg"><path d="m120.203 55.309-4.066 4.139c9.127 1.816 7.899 5.564 7.899 8.961 0 1.313-1.231 6.215-7.257 6.215-2.894 0-4.108-.758-5.788-1.809-1.893-1.184-4.25-2.657-8.651-2.657-4.257 0-7.328 1.383-9.358 2.98-2.016-2.318-4.243-4.403-6.528-6.306 1.888-7.445 10.198-6.587 16.146-.991 20.16-11.345 29.948-28.349 30.368-50.464h-45.663c.157 2.15.199 4.255.161 6.325 5.899 1.869 10.099 7.558 9.687 14.165-.36 5.773-4.424 10.778-9.963 12.446-2.323.7-4.557.727-6.634.318-2.007 3.623-4.397 6.912-7.121 9.806-9.657-4.802-18.774-6.788-22.304-6.998-4.071 15.808-10.942 26.644-21.772 30.451-.577.203-1.218-.087-1.452-.653-.662-1.6-2.405-4.26-6.139-1.552l1.34.881s-2.138 2.864 1.674 3.92c1.21.335.838 1.507-.725 1.116-1.563-.39-4.258-5.805-8.318-3.572-1.116.614-1.842 2.009-1.73 3.07.111 1.061 1.563-.167 1.563-.167s.428 3.535 5.117 2.754c1.34-.224 2.251.651.744.986s-6.687-.381-7.145 4.354c-.168 1.73.837 3.796 1.284 3.182.446-.614.614-.893.614-.893s3.478 1.403 5.75-2.791c.725-1.34 2.722-1.977 2.623-.726-.167 2.121-3.461 2.958-2.679 6.029.781 3.07 3.237 2.847 3.796 2.847.558 0-.168-1.619-.168-1.619s2.554-.665 2.954-3.213c.302-1.931 1.233-3.711 2.817-4.855 6.506-4.698 13.466-6.522 20.857-5.609l3.014-5.136c4.399 1.62 11.171 1.808 18.358 1.744 4.577-.04 8.926 2.001 11.816 5.55l.07.085c-.034.03-8.021 7.157-5.681 17.295 2.344 10.16 13.844 4.689 18.086 1.787 4.243-2.903 6.253 5.173 4.355 6.029-1.707.769-8.374-6.662-8.932 1.339h1.563s.544 1.958 3.461 1.228c2.233-.558 2.042 1.837.335 1.898-3.126.112-7.815 3.35-3.126 8.486l.67-2.122s3.237.112 4.242-2.791 2.599-1.898 2.599-1.898-3.371 5.689 0 8.262c1.755 1.34 4.1.781 4.1.781s-.782-.669-.893-1.897c0 0 2.572-2.022 1.383-4.731-.283-.644-.265-1.383.01-2.032l.304-.718s.871 1.675 2.88 1.787l.559 1.563s3.349-1.34 1.116-4.466c-.828-1.159-1.827-1.83-2.438-2.373-.64-.57-1.017-1.38-1.029-2.237-.081-5.522-.837-10.428-2.671-13.586-.578-.995-1.951-1.457-3.034-1.069-2.775.992-5.082 2.257-9.25 2.406 2.457-2.233 8.411-10.941 4.466-19.203-.563-1.179-1.206-2.295-1.887-3.378.964-.815 2.744-1.795 5.758-1.795 2.671 0 3.839.73 5.455 1.74 1.942 1.215 4.36 2.726 8.984 2.726 9.164 0 13.286-7.16 13.286-12.244 0-3.312-.186-11.314-9.862-13.1"/><path d="m70.111 114.407c-.907 3.538-8.113 4.838-12.356 5.21-.853.075-1.843 1.155-1.786 2.01.054.816.296 1.994.073 3.401-.601 3.794-4.842 1.745-4.842 1.745l.698-1.506c-1.354-1.489.24-3.724.24-3.724l-1.761.729c-.65.27-1.182.784-1.432 1.442-1.052 2.765-4.304 2.402-4.304 2.402-.781.953-.694 1.979-.694 1.979s-2.063-1.247-2.374-3.432c-.598-4.199 5.794-5.89 5.794-5.89s-.106-.868-3.679-.049c-1.871.429-2.741-.166-3.636-.735-.609-.387-1.388-.386-2.026-.048l-.79.419c-.991-6.633 5.873-5.969 8.18-3.856 1.259 1.153.702-.641-1.281-1.809-2.591-1.526-1.606-3.303-1.606-3.303l-1.893-.418c6.401-5.955 8.293 3.52 10.049 4.168 1.953.721 12.253.432 11.09-3.35-.893-2.903-10.346-12.355-3.201-23.743 0 0 6.705.528 16.97.298 0 0-5.703 7.151-6.15 15.264s1.461 9.893.717 12.796"/><path d="m35.436 59.611s-4.44.454-9.049-1.156c-1.712-.598-3.104-1.922-3.731-3.622-1.035-2.808-3.435-6.794-7.931-2.175l1.411.82s.021 3.738 3.497 4.235l.63 1.077s-3.23.898-5.077-.816c-1.846-1.713-6.56.367-4.743 5.6l1.294-.68s2.662 2.931 6.213.111l2.455.047s-8.724 3.903-2.159 9.188l.19-1.495s4.217.403 6.054-4.221l1.852-.58s-1.35 1.762.245 3.381l-.553 1.578s4.787-.11 3.929-4.495c0 0 3.251 2.356 9.206 4.37 0 0 1.138-2.014 1.138-4.913 0 0-.868-.893-4.871-6.254"/><path d="m121.372 30.792c-1.624-4.034-5.528-4.975-8.8-5.321-1.138-1.615-3.292-2.754-5.729-2.391-4.503.67-6.141 4.019-6.141 5.433 0 2.713 2.987 3.871 6.625 3.871 2.307 0 4.14-.677 5.174-1.864 2.179.265 3.65.756 4.2 2.123.934 2.394.594 6.079-1.181 6.831-1.564.714-3.632.589-5.821.457-3.039-.187-6.483-.394-9.484 1.665l-.114.082c-3.326 2.567-4.037 7.632-3.024 11.128 1.391 5.537 7.874 6.631 14.842 6.805 2.069-1.417 3.89-3.035 5.611-5.038-.033 0-.718.032-.751.033-6.192.057-14.062.136-14.835-3.049l-.033-.123c-.542-1.822-.137-4.636 1.208-5.738 1.572-1.036 3.756-.904 6.277-.751 2.58.156 5.506.334 8.148-.872 5.043-2.139 5.47-9.073 3.828-13.281" fill="#faed36"/><path d="m108.369 27.769c0 .959-.583 1.737-1.303 1.737-.719 0-1.302-.778-1.302-1.737s.583-1.737 1.302-1.737c.72 0 1.303.778 1.303 1.737" fill="#373535"/><path d="m78.969 29.981c-.822 0-1.489-1.022-1.489-2.283 0-1.26.667-2.282 1.489-2.282s1.489 1.022 1.489 2.282c0 1.261-.667 2.283-1.489 2.283m13.241 2.43c-.275-4.109-7.361-7.433-7.361-7.433v-1.965c0-2.636-1.34-3.171-1.34-3.171v-3.572c0-1.452-1.228-2.568-3.572-2.568-2.345 0-6.253.09-12.84 0-6.076-.083-11.046-3.87-11.499-3.796v4.912c-1.26-.162-2.476-.236-3.675-.277 2.503 5.71 2.735 14.141-1.252 18.441-2.489 2.685-6.29 4.422-10.364 4.422-.25 0-.494-.025-.741-.037-1.44 2.347-6.745 12.792 2.857 26.464l5.549-15.816c7.874.006 16.343 1.957 24.708 5.321 0 0 2.154-2.869 4.396-5.337-1.179-1.792-2.796-6.687-13.775-2.087 0 0-5.396-6.531-2.679-16.406 0 0-3.126-1.96-1.284-6.872 1.842-4.913 7.997-5.379 10.215-2.233 1.843 2.612.655 4.728.655 4.728 0-2.019-1.637-3.656-3.657-3.656-2.019 0-3.656 1.637-3.656 3.656 0 1.736 1.212 3.182 2.835 3.556-1.205.713-2.021 2.011-2.021 3.512 0 .677.18 1.305.47 1.867.413-.139.847-.232 1.307-.232.371 0 .728.054 1.068.147-1.251.867-2.074 2.31-2.074 3.947 0 1.239.482 2.357 1.251 3.209 0 0 5.385-2.927 9.349-.75 2.798 1.538 4.563 3.488 5.361 4.504.313-.196.601-.338.835-.373 5.522-.828 3.908-4.912 3.908-4.912s-.462 1.095-1.861.707c-2.01-.558-4.168-1.303-4.168-2.531 0-2.791 5.136-2.084 5.136-2.084l-.606 2.183s3.509-.35 5.89-2.667c1.377-1.339-1.637-4.987-1.637-4.987s2.56.067 4.272 2.186" fill="#ec2c8f"/><path d="m23.209 33.526c-.822 0-1.489-1.022-1.489-2.283 0-1.26.667-2.282 1.489-2.282s1.489 1.022 1.489 2.282c0 1.261-.667 2.283-1.489 2.283m16.455-22.439c-7.143-.304-10.752 2.166-13.781 5.317-4.085 4.248-6.445 6.778-11.112 12.111-4.743 5.421-4.689 5.543-4.737 8.007.161.083.178.092.339.175.83-.679 1.83-1.512 2.978-2.492.42-.357 1.05-.309 1.41.111.358.42.309 1.051-.111 1.41-1.714 1.464-3.088 2.59-4.067 3.378 1.348 3.316 5.121 6.369 10.188 6.078 0 0-2.74-1.778-1.259-3.333 1.482-1.556 3.617-2.593 5.66-.815 2.044 1.777 8.488 9.511 8.488 9.511s-.962-6.696 2.815-14.252l-2.825-2.73c-.988-.954-1.545-2.268-1.545-3.64 0 0 9.333-.815 9.407-8 0 0-4.222-1.852-11.072 2.37 0 0-.113-5.037 7.739-6.147 5.848-.826 7.739 2.844 7.739 6.351 0 3.508-2.844 6.352-6.352 6.352-1.321 0-3.85-.223-4.044.916-.205 1.198 1.218 1.972 3.59 2.319 5.24.768 10.145-2.497 11.347-7.655 1.765-7.576-2.627-14.994-10.795-15.342" fill="#3cace1"/></svg>