<svg height="350.307" viewBox="0 0 837.998 350.307" width="837.998" xmlns="http://www.w3.org/2000/svg"><path d="m243.177 18c20.982 0 39.266 7.513 54.597 22.448 1.405 1.406 2.307 3.208 2.307 5.342-.008 1.32-.345 2.63-1.004 3.78l.004.001-.244.417-.13.228-.002-.001c-1.265 2.253-3.642 3.234-6.089 3.406-1.276-.002-2.524-.357-3.625-1.009-4.267-1.924-2.042-1.016-6.685-2.699l11.887 11.727c1.777 1.777 2.673 4.107 2.673 6.623v45.119l23.379-7.952.236-.08.242-.061c.933-.233 1.835-.362 2.736-.362 2.45 0 4.708.941 6.413 2.646l14.492 14.309c1.649 1.605 2.411 3.735 2.615 5.987l19.479-19.354c1.875-1.875 4.036-3.039 6.623-3.039 2.562.025 4.854 1.158 6.592 3.012l.002-.001 13.578 13.395c1.261 1.132 1.751 2.576 2.282 4.126l18.896-18.775c1.875-1.874 4.037-3.038 6.623-3.038 2.553.026 4.845 1.147 6.579 2.996v-.001l7.925 7.764 31.718-10.805.237-.081.243-.061c.933-.233 1.836-.362 2.737-.362 2.45 0 4.707.941 6.4 2.634l8.84 8.677 31.907-10.81.232-.079.238-.06c.933-.233 1.836-.362 2.737-.362 2.45 0 4.707.941 6.44 2.673l14.282 14.282c1.777 1.777 2.673 4.107 2.673 6.624v92.284c0 1.868.546 2.961 1.862 3.894l.097.068.093.072c.512.335.25.214.779.384v-88.28c.031-4.191 2.448-7.196 6.204-8.764l-.003-.007 57.887-20.421 8.197-2.259c2.45 0 4.707.94 6.439 2.673l14.283 14.282c1.3 1.173 1.779 2.66 2.329 4.264l18.482-18.364c1.876-1.875 4.037-3.038 6.623-3.038 2.553.026 4.845 1.147 6.579 2.996v-.001l7.923 7.762 32.124-10.999c.928-.309 1.836-.491 2.813-.491 2.12 0 4.106.723 5.698 1.996 1.154.898 2.302 1.3 3.64 1.3.669 0 1.422-.108 2.285-.343l4.761-1.282.766-.206h1.343c2.774.074 5.432 1.41 6.691 3.983.815 1.133 1.031 2.501 1.14 3.848.026 1.925-.79 3.689-1.997 5.146l.159-.04 37.155-12.263c.969-.323 1.975-.491 2.995-.491 2.429.005 4.582.985 6.352 2.593l.003-.003 14.099 13.549-.006.006c1.996 1.714 2.813 4.154 2.947 6.701v92.102c0 2.062.554 3.243 1.699 4.09.694.496 1.368.713 2.189.713.956-.034.572 0 1.156-.063 1.381-.434 1.329-.413 2.506-.486 3.125 0 5.718 1.852 6.852 4.687l.152.379.099.395.182.733.179.715v.737c.001 2.107-.832 4.052-2.306 5.526l-28.748 28.747c-1.803 1.804-4.083 2.857-6.623 2.857-2.36 0-4.435-.958-6.285-2.543l-.175-.151-8.056-8.056-31.926 10.991c-.97.323-1.976.491-2.996.491-2.539 0-4.82-1.052-6.596-2.829l-14.282-14.099-.208-.205-.186-.224c-1.484-1.78-2.306-3.919-2.306-6.221v-71.778c0-4.317 2.486-7.759 6.601-9.026l43.57-13.527v-8.287l-3.443-3.442-10.814 3.228-.001-.004c-1.481.584-3.072.731-4.645.804-2.521.049-4.928-.755-7.153-1.874l-.004.009-.314-.169-.13-.065.002-.004c-3.518-1.764-6.184-4.816-7.415-8.559l-4.018 3.98-.003-.003c-4.157 4.406-9.663 6.228-15.572 6.502-5.234-.074-10.406-1.78-14.32-5.355l-1.286.36v80.476c0 1.96.517 2.993 1.723 3.797l.169.113.161.124c.527.406 1.07.587 1.835.587l.709-.026c1.697-.551.889-.408 2.403-.524 2.824 0 5.206 1.489 6.61 3.829l.119.198.103.206c.19.38.347.72.479 1.05.334.835.52 1.488.52 2.548-.047 2.164-.935 4.25-2.619 5.654l-28.435 28.435c-1.803 1.804-4.084 2.856-6.623 2.856-2.36 0-4.435-.958-6.285-2.543l-.175-.15-13.722-13.722-.175-.209c-1.483-1.78-2.305-3.919-2.305-6.221v-93.018c0-1.436-.418-2.29-1.446-3.074l-.654-.438v48.922c.001 4.009-2.188 7.293-5.889 8.834l-.176.074-.18.062-43.925 15.11-.001 9.323 3.481 3.481 10.752-3.258.001.003c1.488-.586 3.087-.737 4.669-.81 2.521-.05 4.928.755 7.153 1.873l.004-.009.315.17.129.065-.002.003c3.844 1.861 6.32 5.229 7.627 9.205l.008-.003 3.155 9.818.611 1.222v1.782c-.076 2.386-1.171 4.784-3.304 6.031-1.242 1.245-2.913 1.447-4.527 1.618-1.743.023-3.299-.673-4.598-1.815l-.001.002-3.296-2.564-.218-.17-.202-.189c-.882-.827-1.575-1.123-2.305-1.124-.239.001-.51.061-.859.216l-.269.119-.279.093-36.978 12.265c-.971.323-1.977.491-2.997.491-2.539 0-4.819-1.052-6.595-2.829l-14.283-14.099-.207-.205-.187-.224c-1.385-1.6-2.073-3.618-2.259-5.699l-18.918 18.918c-1.803 1.804-4.084 2.856-6.623 2.856-2.36 0-4.436-.957-6.285-2.543l-.159-.136-.15-.148-13.55-13.367-.208-.205-.188-.225c-1.483-1.78-2.306-3.919-2.306-6.221v-.896l-20.885 20.885c-1.771 1.772-3.94 2.856-6.44 2.856-2.621 0-4.912-1.145-6.777-3.01l-13.366-13.183-.209-.206-.187-.225c-1.484-1.78-2.306-3.919-2.307-6.221v-.896l-20.885 20.885c-1.771 1.772-3.94 2.856-6.44 2.856-2.621 0-4.912-1.145-6.776-3.01l-13.367-13.183-.209-.206-.187-.225c-1.518-2.153-.787-.865-1.954-3.991l-19.04 19.041c-1.804 1.803-4.084 2.856-6.623 2.856-2.361 0-4.436-.958-6.286-2.543l-.174-.15-.164-.163-5.552-5.552c-3.69 9.741-11.999 16.65-20.538 22.074-14.928 8.905-33.861 13.299-56.724 13.299-18.192.069-35.964-4.898-51.859-13.633-11.344 6.338-23.833 9.674-36.764 10.154-4.177 0-8.295-.405-12.346-1.216l-.197-.043c-4.019-.927-7.928-2.285-11.704-3.938-13.365 10.859-27.088 21.415-42.101 29.92-17.691 9.614-35.204 14.461-52.487 14.461-13.897 0-25.868-3.094-35.833-9.373-9.278-5.954-15.805-14.026-19.436-24.08-1.943-5.413-2.916-11.043-2.916-16.858 0-4.417.614-9.053 1.827-13.907l.026-.099c2.964-11.049 8.819-20.941 17.482-29.605 1.528-1.527 3.452-2.489 5.707-2.49h.368c1.923.001 3.761.72 5.236 1.947l.011-.014c1.999 1.499 3.133 3.766 3.133 6.265 0 2.074-.757 3.966-2.048 5.579l-.229.286-.262.257c-3.839 3.615-6.23 8.126-6.8 13.358v1.211c0 4.122 1.324 8.142 4.048 12.131 3.209 4.719 7.739 8.145 12.656 10.912 5.637 2.927 11.835 4.104 18.129 4.282 24.762-.339 47.928-11.061 68.481-24.118-8.529-11.153-12.319-24.465-12.592-38.363v-76.539c0-1.292-.401-2.094-1.481-2.918l-.112-.087c-.8-.64-1.446-.882-2.111-.882-.146 0-.39.037-.732.135l-.234.067-.238.047-.916.184-.582.116h-1.143c-2.507-.065-4.956-1.184-6.27-3.407l-.005.003c-.841-1.262-1.373-2.594-1.373-4.244 0-2.133.901-3.936 2.306-5.341l12.301-12.301c-.343-.677-.092-.301-.891-1.023l-.112-.087c-.8-.64-1.446-.883-2.111-.883-.226 0-.379.024-.483.059l-.355.118-.366.073-.916.183-.582.117h-1.143c-2.513 0-4.648-1.22-6.082-3.133l-.727-.969-.294-1.175-.183-.733-.179-.717v-.739c0-2.106.833-4.05 2.306-5.524l28.748-28.747c1.875-1.875 4.037-3.039 6.623-3.039 2.583.021 4.872 1.176 6.621 3.041l.002-.002 7.928 7.928 12.957-4.076v-1.441c.068-2.894-.002-1.511.192-4.151.093-3.304.478-6.589.964-9.855h-.001l.014-.088.012-.076c.988-7.869 3.352-15.438 6.777-22.571 9.617-19.234 27.247-28.951 51.875-28.951zm0 6q-33.691 0-46.509 25.635-4.577 8.972-6.225 20.874-.733 4.394-.916 9.338-.183 1.831-.183 3.845v3.479q0 2.381-2.38 3.113l-16.297 5.127q-.549.183-1.098.183-1.282 0-2.381-1.099l-8.972-8.972q-1.098-1.281-2.38-1.281-1.099 0-2.38 1.281l-28.748 28.748q-.549.549-.549 1.282l.183.732q.549.733 1.281.733h.55l.915-.183q1.099-.367 2.381-.367 3.113 0 5.859 2.197 3.845 2.93 3.845 7.691l-14.648 14.648q-.549.55-.549 1.099 0 .366.366.916.366.732 1.281.732h.55l.915-.183q1.282-.366 2.381-.366 3.113 0 5.859 2.197 3.845 2.93 3.845 7.69v76.539q0 21.057 13.001 36.804 1.098 1.281 1.098 2.38 0 1.465-1.648 2.563-41.015 26.734-74.34 26.734-10.987 0-20.874-4.944-9.339-4.944-14.832-12.817-5.127-7.508-5.127-15.564v-1.465q.549-9.522 8.606-17.395.733-.916.733-1.831 0-.916-.733-1.465-.732-.732-1.648-.733h-.366q-.732.001-1.465.733-11.902 11.902-15.93 26.916-1.648 6.592-1.648 12.452 0 7.69 2.563 14.831 4.761 13.184 17.029 21.057 13.367 8.423 32.593 8.423 24.353 0 49.622-13.733 16.845-9.338 42.297-30.212 1.099-.916 2.197-.916.733 0 1.465.366 5.859 2.747 12.085 4.212 5.493 1.099 11.169 1.099 16.663 0 35.157-10.071.915-.549 1.648-.549.915 0 1.648.549 23.803 13.55 50.17 13.55 32.776 0 53.65-12.452 18.677-11.352 20.142-27.465l.137-1.275 13.128 13.128q1.282 1.099 2.381 1.099 1.281 0 2.38-1.099l28.564-28.564c.344-.307.25-.162.367-.366v11.902q0 1.281.915 2.38l13.367 13.184q1.282 1.281 2.563 1.281 1.099 0 2.198-1.098l28.564-28.565q.732-.549.732-1.281 0-.367-.366-.916-.549-.916-1.465-.916-.183 0-.549.183-1.282.367-2.563.367-3.479 0-6.226-2.381-3.662-3.112-3.662-8.24v-82.397q0-2.563 2.38-3.296l4.578-1.465q.549-.183.915-.183 1.282 0 2.381 1.099l5.493 5.493q.916.916.915 2.38v104.371q.001 1.281.916 2.38l13.367 13.184q1.281 1.281 2.563 1.281 1.099 0 2.197-1.098l28.565-28.565q.732-.549.732-1.281 0-.367-.366-.916-.549-.916-1.465-.916-.183 0-.549.183-1.282.367-2.564.367-3.478 0-6.225-2.381-3.662-3.112-3.662-8.24v-82.397q0-2.563 2.38-3.296l4.578-1.465q.549-.183.915-.183 1.282 0 2.381 1.099l5.493 5.493q.915.916.915 2.38v104.371q0 1.281.916 2.38l13.55 13.367q1.282 1.098 2.38 1.098 1.282 0 2.38-1.098l23.114-23.114v-8.094c-1.68.005-3.099-.884-4.437-1.751q-4.394-3.113-4.394-8.79v-92.284q0-1.465-.916-2.381l-14.282-14.282q-.916-.916-2.197-.916-.55 0-1.282.183l-33.508 11.353q-.55.183-1.099.183-1.282 0-2.38-1.099l-9.888-9.704q-.916-.916-2.197-.916-.55 0-1.282.183l-33.325 11.353q-.55.183-1.099.183-1.282 0-2.38-1.099l-8.972-8.789q-1.099-1.281-2.381-1.281-1.098 0-2.38 1.281l-28.565 28.382-.183.244v-11.597q0-1.465-.915-2.38l-13.55-13.367q-1.099-1.282-2.38-1.282-1.099 0-2.381 1.282l-28.564 28.381q-.55.55-.55 1.099 0 .366.367.916.366.915 1.281.915h.55q1.465-.366 2.746-.366 3.113 0 6.043 2.197 3.845 2.93 3.845 7.874v86.831c-.625-1.892-1.298-3.8-2.495-5.418l1.213-1.213q.733-.549.733-1.282 0-.183-.367-.915-.549-.916-1.464-.916-.183 0-.55.366c-1.637.176-.852.122-2.352.176-2.811-3.116-5.823-6.003-9.448-8.184l-.427-.267c-.248-1.292-.154-.574-.224-2.162v-92.285q0-1.465-.916-2.38l-14.465-14.282q-.915-.916-2.197-.916-.549 0-1.282.183l-26.916 9.156q-.55.183-1.099.183-1.098 0-1.831-.55-1.465-1.098-1.465-2.746v-48.89q0-1.464-.915-2.38l-13.55-13.367q-1.099-1.281-2.38-1.281-1.099 0-2.381 1.281l-28.564 28.382q-.55.549-.55 1.098 0 .367.367.916.366.916 1.281.915h.55q1.281-.366 2.746-.366 3.479 0 6.592 2.564 3.296 2.929 3.296 7.507v120.433c-8.931 1.804-17.674 4.444-26.083 7.972q-.915.366-1.831.366-1.831 0-2.563-2.38-4.028-12.634-4.029-26.917v-112.243q.001-15.564 9.705-26.734 9.888-11.352 24.536-13.183 3.113-.366 6.592-.367 13.916.001 28.015 6.775.55.367.916.367.732 0 1.098-.733.367-.549.367-1.098 0-.55-.55-1.099-21.24-20.691-50.354-20.691zm61.89 212.585 2.462.076v10.13q0 1.282.915 2.381l13.367 13.366q1.282 1.099 2.38 1.099 1.282 0 2.381-1.099l19.752-19.752c.328 1.751.231.888.308 2.588v.55q-.366 9.888-13.916 17.395-14.466 8.057-36.621 8.423h-1.282q-18.127 0-34.241-9.339-1.648-.915-1.648-2.746v-.367q0-1.647 1.282-2.563c2.368-1.719 1.281-.932 3.26-2.362l8.174 8.173q.916.733 2.014.733h.733q1.281 0 2.014-.733 3.662-3.845 8.24-8.239 1.464-1.282 3.662-3.662l1.648-1.649 1.648-1.647q7.324-7.141 10.254-10.071l.645-.684.005-.001zm-3.538 9.437c-1.891 1.859-3.79 3.71-5.688 5.561l-3.233 3.233c-1.22 1.335-2.497 2.616-3.834 3.832-3.455 3.349-1.453 1.387-5.98 5.913 9.272 1.228 5.256.962 12.019 1.181h1.182c6.208-.099 12.42-.675 18.479-2.055l-10.465-10.465-.174-.209c-1.484-1.78-2.306-3.919-2.306-6.222zm-96.987 7.409q1.282 0 2.38 1.465l.733.915q.732.916.732 2.015 0 .732-.183 1.464-.915 1.832-2.93 2.015h-2.197q-2.38 0-3.113-2.198-.366-.732-.366-1.464 0-1.465 1.465-2.381l1.282-.915q1.098-.916 2.197-.916zm-18.311-121.948q.916 0 1.831.549 1.282 1.099 1.282 2.747v67.383q0 8.606 1.648 17.944 1.831 10.986 4.944 17.212.732 1.099.732 2.014 0 1.465-1.648 2.38-5.676 3.663-12.084 8.057-1.099.733-2.198.732-1.281.001-2.563-1.647-5.493-7.691-5.493-17.762v-93.2q0-2.381 2.38-3.113l9.888-3.113q.549-.183 1.281-.183zm-2.887 6.979-4.662 1.467v91.163c-.005 3.215.534 6.404 1.706 9.406.38.97.927 1.866 1.391 2.799 2.608-1.782 5.237-3.534 7.885-5.257-2.336-5.387-3.55-11.14-4.581-16.891-1.157-6.562-1.739-12.892-1.739-18.987zm74.014 86.068v16.267l-3.011 1.465-5.677 2.929-3.479 1.832q-.915.366-1.648.366-1.281 0-2.38-1.282-3.662-4.028-6.409-8.606-.732-1.282-.732-2.197 0-1.648 2.014-2.747c6.892-3.162 13.856-6.457 21.322-8.027zm-6 7.996c-3.401 1.2-6.695 2.682-9.973 4.18 2.748 3.688 1.674 2.427 3.001 3.96l1.532-.806 5.44-2.808zm138.568-90.654q.367.916 1.282.915h.549q1.465-.366 2.564-.366 3.296 0 6.225 2.197 3.846 2.93 3.846 7.874v79.285q-.55-.916-1.465-.916-.183 0-.55.366-1.281.184-2.563.184-3.113 0-5.493-1.832-4.395-2.929-4.395-8.789zm6 6.967v71.951c0 1.96.517 2.993 1.723 3.797l.169.113.161.124c.134.087.268.175.402.263.003.001.007.002.011.003v-72.598c0-1.435-.418-2.29-1.446-3.073-.785-.52-.43-.358-1.02-.58zm-105.06 71.942c5.569.187 11.141.45 16.663 1.248v7.433c-3.04-.606-6.134-.959-9.237-.933-2.72.057-1.362-.012-4.075.208-2.231-2.105-3.368-4.88-3.351-7.947zm8.057-87.149q1.282 0 2.197.916l5.493 5.493q.916.915.916 2.38v69.361c-5.542-.562-11.076-1.235-16.663-1.159v-72.413q.183-2.381 2.38-3.113l4.578-1.282q.55-.183 1.099-.183zm-.857 6.347-1.2.335v64.472c2.987.194 1.433.075 4.663.369v-61.713zm-112.201-35.413q1.099 0 2.197.733 1.282 1.099 1.282 2.746v5.86q0 2.38-2.38 3.113l-9.888 3.112q-.549.184-.915.183-1.099.001-2.198-.732-1.281-1.099-1.281-2.747v-5.676q0-2.563 2.38-3.296l9.888-3.113q.549-.183.915-.183zm-2.521 6.979-4.662 1.468v.322l4.662-1.468zm533.609-2.266q-.367 0-.916.183l-33.691 11.536q-.55.183-1.099.183-1.282 0-2.38-1.099l-8.973-8.789q-1.098-1.281-2.38-1.281-1.098 0-2.38 1.281l-28.382 28.2.001-11.72q0-1.465-.916-2.381l-14.282-14.282q-.916-.915-2.198-.915-.549 0-1.281.183l-62.805 22.156q-2.198.732-2.198 3.112v88.201c2.256.428 3.812 1.908 4.922 3.837.796 1.156.973 2.555 1.078 3.91 0 2.133-.901 3.935-2.307 5.341l-3.693 3.693v5.431q0 1.282.916 2.38l14.282 14.099q1.099 1.099 2.38 1.099.55 0 1.099-.183l36.987-12.268q1.648-.732 3.296-.732 3.479 0 6.409 2.746l3.296 2.564q.549.549.915.549.55 0 1.099-.549.732-.367.732-1.099v-.366l-.183-.367-1.648-5.127-1.648-5.126q-1.098-4.029-4.943-5.86-2.198-1.281-4.578-1.281-1.465 0-2.93.549l-12.085 3.662q-.732.183-1.281.183-1.282 0-2.198-.916l-5.493-5.493q-.915-1.098-.916-2.38l.001-12.085q0-2.38 2.197-3.296l45.776-15.747q2.198-.915 2.197-3.296v-55.523c.608.434.293.324.916.408h.549q1.465-.366 2.747-.366 3.113 0 6.042 2.197 3.846 2.93 3.846 7.874v93.018q0 1.281.915 2.38l13.367 13.367q1.282 1.098 2.38 1.098 1.282 0 2.38-1.098l28.565-28.565q.732-.549.732-1.282 0-.183-.366-.915-.549-.916-1.465-.916-.183 0-.549.367-1.282.183-2.563.183-3.113 0-5.494-1.831-4.394-2.93-4.394-8.789v-82.398q0-2.563 2.38-3.296l4.578-1.282q.549-.183 1.099-.183 1.281 0 2.197.916 4.761 4.761 11.352 4.761 6.775 0 11.353-4.761l10.989-10.886 2.744 8.689q1.098 4.028 4.944 5.859 2.197 1.282 4.577 1.282 1.465 0 2.93-.55l12.268-3.662q.549-.183 1.099-.183 1.281 0 2.197.916l5.493 5.493q.916.915.916 2.38v11.353q0 2.38-2.381 3.113l-45.41 14.099q-2.38.732-2.38 3.296v71.777q0 1.282.915 2.38l14.283 14.099q1.098 1.099 2.38 1.099.549 0 1.098-.183l33.509-11.536q.549-.183 1.098-.183 1.282 0 2.381 1.099l8.972 8.972q1.282 1.099 2.38 1.099 1.282 0 2.381-1.099l28.747-28.747q.55-.55.549-1.282l-.183-.733q-.366-.915-1.281-.915-.183 0-.55.183l-.549.183q-1.282.183-2.563.183-3.113 0-5.677-1.831-4.211-3.113-4.211-8.972v-92.102q0-1.465-1.099-2.381l-14.099-13.549q-.915-.916-2.197-.916-.549 0-1.099.183l-37.17 12.268q-1.648.55-3.296.55-2.197 0-4.212-1.099-1.098-.366-2.929-1.831l-1.804-1.546 5.649-5.595q.549-.549.549-1.282 0-.366-.366-.915-.366-.916-1.465-.916h-.549l-4.761 1.282q-2.014.549-3.845.549-4.028 0-7.324-2.563-.916-.733-2.014-.733zm39.917 63.721q1.281 0 2.197.915l5.493 5.494q.916.915.916 2.38v54.382q0 2.564-2.381 3.296l-4.394 1.282q-.733.183-1.282.183-1.282 0-2.197-.916l-5.493-5.493q-.916-1.098-.916-2.38v-54.382q0-2.564 2.38-3.296l4.578-1.282q.549-.183 1.099-.183zm-.858 6.346-1.199.336v51.44l3.492 3.493 1.171-.342v-51.464zm-161.374-46.446q1.282 0 2.197.915l5.494 5.494q.915.915.915 2.38v54.199q0 2.38-2.38 3.113l-9.888 3.113q-.549.183-1.098.183-1.099 0-2.015-.733-1.281-.915-1.282-2.563l.001-61.34q0-2.564 2.38-3.296l4.578-1.282q.549-.183 1.098-.183zm-.857 6.346-1.199.336-.001 55.736 4.663-1.468v-51.141zm-40.708 92.347v.001zm-57.897-92.99-1.105.353v80.552c0 1.69.473 2.755 1.592 3.706.753.653 1.437.915 2.295.915.508-.038.3-.001.629-.073.001-.001.002-.001.003-.001.048-.013.096-.026.143-.039v-81.856zm-50.171 0-1.105.353v80.552c0 1.69.473 2.755 1.592 3.706.753.653 1.438.915 2.296.915.507-.038.3-.001.628-.073.001-.001.002-.001.003-.001.048-.013.096-.026.143-.039v-81.856zm-97.968 11.151v69.824c1.584 1.054.378.219 3.381 2.819v-68.623c0-1.436-.417-2.29-1.445-3.074-.722-.546-1.006-.583-1.936-.946zm-117.987 66.611-.003.001v.001zm34.635-169.886c-2.091.001-4.055.11-5.848.32-8.292 1.037-15.128 4.71-20.751 11.166-5.507 6.339-8.233 13.848-8.234 22.798v112.243c.096 7.476.772 15.062 2.907 22.264 6.34-2.634 12.96-4.428 19.599-6.105v-115.633c.06-1.156-.452-2.136-1.218-2.954-.752-.672-1.682-1.017-2.67-1.117-.431 0-.793.049-1.098.136l-.808.23h-1.39c-2.749-.077-5.301-1.483-6.527-4.015-.806-1.125-1.012-2.482-1.121-3.816 0-2.133.902-3.935 2.321-5.354l28.55-28.368c1.542-1.335.895-.96 1.74-1.416-3.354-.409-1.539-.259-5.452-.379z" fill="#3d3d3d"/><path d="m243.177 24q29.114 0 50.354 20.691.55.549.55 1.099 0 .549-.367 1.098-.366.733-1.098.733-.366 0-.916-.367-14.099-6.774-28.015-6.774-3.479 0-6.592.366-14.648 1.831-24.536 13.183-9.704 11.17-9.704 26.734v112.243q0 14.283 4.028 26.917.732 2.38 2.563 2.38.916 0 1.831-.366c8.409-3.528 17.152-6.168 26.083-7.972v-120.433q0-4.578-3.296-7.507-3.113-2.564-6.592-2.564-1.465 0-2.746.367l-.55-.001q-.915.001-1.281-.915-.367-.549-.367-.916 0-.549.55-1.098l28.564-28.382q1.282-1.281 2.381-1.281 1.281 0 2.38 1.282l13.55 13.366q.915.916.915 2.381v48.889q0 1.648 1.465 2.746.733.55 1.831.55.549 0 1.099-.183l26.916-9.156q.733-.183 1.282-.183 1.282 0 2.197.916l14.466 14.282q.915.915.915 2.38v92.285c.07 1.588-.024.87.224 2.162l.427.267c3.625 2.181 6.637 5.068 9.448 8.184 1.5-.054.715 0 2.352-.176q.367-.366.55-.366.915 0 1.464.916.367.732.367.915 0 .733-.733 1.282l-1.213 1.213c1.197 1.618 1.87 3.526 2.495 5.418v-86.831q0-4.944-3.845-7.874-2.93-2.197-6.043-2.197-1.281 0-2.746.366h-.55q-.915 0-1.281-.915-.367-.55-.367-.916 0-.549.55-1.098l28.564-28.382q1.282-1.282 2.381-1.282 1.281 0 2.38 1.282l13.55 13.367q.915.915.915 2.38v11.597l.183-.244 28.565-28.382q1.282-1.281 2.38-1.281 1.282 0 2.381 1.281l8.972 8.79q1.098 1.098 2.38 1.098.549 0 1.099-.183l33.325-11.353q.732-.183 1.282-.183 1.281 0 2.197.916l9.888 9.705q1.098 1.098 2.38 1.098.549 0 1.099-.183l33.508-11.353q.732-.183 1.282-.183 1.281 0 2.197.916l14.282 14.282q.916.916.916 2.381v92.285q0 5.676 4.394 8.789 2.381 1.831 5.493 1.831 1.465 0 2.564-.366.366-.184.732-.184.916 0 1.282.916c.357.715.241.347.366 1.098v-95.947q0-2.38 2.198-3.112l62.805-22.156q.732-.183 1.281-.183 1.282 0 2.198.915l14.282 14.282q.916.916.916 2.381l-.001 11.72 28.382-28.2q1.282-1.281 2.38-1.281 1.282 0 2.381 1.281l8.972 8.789q1.098 1.099 2.38 1.099.549 0 1.099-.183l33.691-11.536q.549-.183.916-.183 1.098 0 2.014.733 3.296 2.563 7.324 2.563 1.831 0 3.845-.549l4.761-1.282h.549q1.099 0 1.465.916.366.549.366.915 0 .733-.549 1.282l-5.649 5.595 1.804 1.546q1.831 1.465 2.93 1.831 2.014 1.099 4.211 1.099 1.648 0 3.296-.55l37.17-12.268q.55-.183 1.099-.183 1.282 0 2.197.916l14.099 13.549q1.099.916 1.099 2.381v92.102q0 5.859 4.211 8.972 2.564 1.831 5.677 1.831 1.281 0 2.563-.183l.549-.183q.367-.183.55-.183.915 0 1.281.915l.183.733q.001.732-.549 1.282l-28.747 28.747q-1.099 1.099-2.381 1.099-1.098 0-2.38-1.099l-8.972-8.972q-1.099-1.099-2.381-1.099-.549 0-1.098.183l-33.509 11.536q-.549.183-1.098.183-1.282 0-2.38-1.099l-14.283-14.099q-.915-1.098-.915-2.38v-71.777q0-2.564 2.38-3.296l45.41-14.099q2.381-.733 2.381-3.113v-11.353q0-1.465-.916-2.38l-5.493-5.493q-.916-.916-2.197-.916-.55 0-1.099.183l-12.268 3.662q-1.465.55-2.93.55-2.38 0-4.577-1.282-3.846-1.831-4.944-5.859l-2.744-8.689-10.989 10.886q-4.578 4.761-11.353 4.761-6.591 0-11.352-4.761-.916-.916-2.197-.916-.55 0-1.099.183l-4.578 1.282q-2.38.733-2.38 3.296v82.398q0 5.859 4.394 8.789 2.381 1.831 5.494 1.831 1.281 0 2.563-.183.366-.367.549-.367.916 0 1.465.916.366.732.366.915 0 .733-.732 1.282l-28.564 28.565q-1.099 1.098-2.381 1.098-1.098 0-2.38-1.098l-13.367-13.367q-.915-1.099-.915-2.38v-93.018q0-4.944-3.846-7.874-2.929-2.197-6.042-2.197-1.282 0-2.747.366h-.549c-.623-.084-.308.026-.916-.408v55.523q.001 2.381-2.197 3.296l-45.776 15.747q-2.197.916-2.197 3.296v12.085q0 1.282.915 2.38l5.493 5.494q.916.915 2.198.915.549 0 1.281-.183l12.085-3.662q1.465-.549 2.93-.549 2.38 0 4.578 1.281 3.845 1.831 4.943 5.86l3.296 10.254.183.366v.366q0 .732-.732 1.099-.549.549-1.099.549-.366 0-.915-.549l-3.296-2.564q-2.93-2.746-6.409-2.746-1.648 0-3.296.732l-36.987 12.268q-.549.183-1.099.183-1.281 0-2.38-1.099l-14.282-14.099q-.916-1.098-.916-2.38v-14.465c-.193.771-.024.398-.549 1.098l-28.565 28.565q-1.098 1.098-2.38 1.098-1.098 0-2.38-1.098l-13.55-13.367q-.916-1.099-.916-2.38v-104.371q0-1.464-.915-2.38l-5.493-5.493q-1.099-1.099-2.381-1.099-.366 0-.915.183l-4.578 1.465q-2.38.733-2.38 3.296v82.398q0 5.127 3.662 8.239 2.747 2.381 6.226 2.381 1.281 0 2.563-.366.366-.184.549-.184.916 0 1.465.916.366.549.366.916 0 .732-.732 1.281l-28.565 28.565q-1.098 1.098-2.197 1.098-1.282 0-2.563-1.281l-13.367-13.184q-.915-1.099-.915-2.38v-104.371q0-1.464-.916-2.38l-5.493-5.493q-1.099-1.099-2.381-1.099-.366 0-.915.183l-4.578 1.465q-2.38.733-2.38 3.296v82.398q0 5.127 3.662 8.239 2.747 2.381 6.226 2.381 1.281 0 2.563-.366.366-.184.549-.184.916 0 1.465.916.366.549.366.916 0 .732-.732 1.281l-28.564 28.565q-1.099 1.098-2.198 1.098-1.281 0-2.563-1.281l-13.367-13.184q-.915-1.099-.915-2.38v-11.902c-.117.204-.023.059-.367.366l-28.564 28.564q-1.099 1.099-2.38 1.099-1.099 0-2.381-1.099l-13.128-13.128-.137 1.275q-1.465 16.113-20.142 27.465-20.874 12.452-53.649 12.452-26.368 0-50.171-13.55-.733-.549-1.648-.549-.733 0-1.648.549-18.494 10.071-35.156 10.071-5.677 0-11.17-1.099-6.226-1.465-12.085-4.211-.732-.367-1.465-.367-1.098 0-2.197.916-25.452 20.874-42.297 30.212-25.269 13.733-49.622 13.733-19.226 0-32.593-8.423-12.268-7.873-17.029-21.057-2.563-7.141-2.563-14.831 0-5.86 1.648-12.452 4.028-15.014 15.93-26.916.733-.732 1.465-.732l.366-.001q.916.001 1.648.733.733.549.733 1.465 0 .915-.733 1.831-8.057 7.873-8.606 17.395v1.465q0 8.056 5.127 15.564 5.493 7.873 14.832 12.817 9.887 4.944 20.874 4.944 33.325 0 74.341-26.733 1.647-1.099 1.647-2.564 0-1.099-1.098-2.38-13.001-15.747-13.001-36.804v-76.539q0-4.76-3.845-7.69-2.746-2.197-5.859-2.197-1.099 0-2.381.366l-.915.183h-.549q-.916 0-1.282-.732-.366-.55-.366-.916 0-.549.549-1.099l14.648-14.648q0-4.761-3.845-7.69-2.746-2.198-5.859-2.198-1.282 0-2.381.367l-.915.183h-.549q-.733 0-1.282-.733l-.183-.732q0-.733.549-1.282l28.748-28.748q1.281-1.281 2.38-1.281 1.282 0 2.38 1.282l8.972 8.972q1.099 1.098 2.381 1.098.549 0 1.098-.183l16.297-5.127q2.38-.732 2.38-3.113v-3.479q0-2.014.183-3.845.183-4.944.916-9.338 1.648-11.902 6.225-20.874 12.818-25.635 46.509-25.635zm61.89 212.585h-2.564l-.005.001-.645.684q-2.93 2.93-10.254 10.071l-3.296 3.296q-2.198 2.38-3.662 3.662-4.578 4.394-8.24 8.239-.733.733-2.014.733h-.733q-1.098 0-2.014-.733l-8.174-8.173c-1.979 1.43-.892.643-3.26 2.362q-1.282.916-1.282 2.564v.366q0 1.831 1.648 2.746 16.114 9.339 34.241 9.339h1.282q22.155-.366 36.621-8.423 13.55-7.507 13.916-17.395v-.55c-.077-1.7.02-.837-.308-2.588l-19.752 19.752q-1.099 1.099-2.381 1.099-1.098 0-2.38-1.099l-13.367-13.366q-.915-1.099-.915-2.381v-10.13zm-100.525 16.846q-1.099 0-2.197.916l-1.282.915q-1.465.916-1.465 2.381 0 .732.366 1.464.733 2.198 3.113 2.198h2.197q2.015-.183 2.93-2.014.183-.733.183-1.465 0-1.099-.732-2.014l-.733-.916q-1.098-1.465-2.38-1.465zm-18.311-121.948q-.732 0-1.281.183l-9.888 3.113q-2.38.732-2.38 3.113v93.2q0 10.071 5.493 17.762 1.282 1.648 2.563 1.648 1.099 0 2.198-.733 6.408-4.394 12.085-8.057 1.647-.915 1.647-2.38 0-.915-.732-2.014-3.113-6.226-4.944-17.212-1.648-9.338-1.648-17.944v-67.383q0-1.648-1.282-2.747-.915-.549-1.831-.549zm71.127 93.047c-7.466 1.57-14.43 4.865-21.322 8.027q-2.014 1.099-2.014 2.747 0 .915.732 2.197 2.747 4.578 6.409 8.606 1.099 1.282 2.38 1.282.733 0 1.648-.366l3.479-1.832 5.677-2.929 3.011-1.465zm499.512-51.53q-.55 0-1.099.183l-4.578 1.282q-2.38.732-2.38 3.296v54.382q0 1.282.916 2.38l5.493 5.494q.915.915 2.197.915.549 0 1.282-.183l4.394-1.282q2.381-.732 2.381-3.296v-54.382q0-1.465-.916-2.38l-5.493-5.494q-.916-.915-2.197-.915zm-366.944-31.128v78.918q0 5.86 4.395 8.789 2.38 1.832 5.493 1.832 1.282 0 2.563-.184.367-.366.55-.366.915 0 1.465.916v-79.285q0-4.944-3.846-7.873-2.929-2.198-6.225-2.198-1.099 0-2.564.367l-.549-.001q-.915.001-1.282-.915zm-99.06 78.909v.009c-.017 3.067 1.12 5.842 3.351 7.947 2.713-.22 1.355-.151 4.075-.208 3.103-.026 6.197.327 9.237.933v-7.433c-5.522-.798-11.094-1.061-16.663-1.248zm8.057-87.149q-.549 0-1.099.183l-4.577 1.282q-2.198.732-2.381 3.113v72.413c5.587-.076 11.121.597 16.663 1.159v-69.361q0-1.465-.916-2.38l-5.493-5.493q-.915-.916-2.197-.916zm295.715-.732q-.549 0-1.098.183l-4.578 1.282q-2.38.732-2.38 3.296v61.34q0 1.648 1.281 2.563.916.733 2.015.733.549 0 1.098-.183l9.888-3.113q2.38-.733 2.38-3.113v-54.199q0-1.465-.915-2.38l-5.494-5.494q-.915-.915-2.197-.915zm-408.773-28.334q-.366 0-.915.184l-9.888 3.112q-2.38.733-2.38 3.296v5.677q0 1.647 1.281 2.746 1.099.733 2.198.733.366 0 .915-.184l9.888-3.112q2.38-.733 2.38-3.113v-5.86q0-1.647-1.282-2.746-1.098-.733-2.197-.733z"/><path d="m373.71 49.655c1.414.653.858.265 1.751 1.03l17.029 17.212q1.281 1.099 1.281 2.381 0 1.098-1.281 2.38l-17.029 16.846q-1.099 1.098-2.38 1.098-1.099 0-2.381-1.098l-16.846-16.846q-1.281-1.282-1.281-2.563 0-1.099 1.098-2.198l17.029-17.029q1.282-1.281 2.381-1.281z" fill="#d9197e"/></svg>